<?xml version="1.0" encoding="UTF-8" standalone="no"?>
<svg
   xmlns:dc="http://purl.org/dc/elements/1.1/"
   xmlns:cc="http://creativecommons.org/ns#"
   xmlns:rdf="http://www.w3.org/1999/02/22-rdf-syntax-ns#"
   xmlns:svg="http://www.w3.org/2000/svg"
   xmlns="http://www.w3.org/2000/svg"
   xmlns:sodipodi="http://sodipodi.sourceforge.net/DTD/sodipodi-0.dtd"
   xmlns:inkscape="http://www.inkscape.org/namespaces/inkscape"
   width="551.43402pt"
   height="514.41467pt"
   viewBox="0 0 551.43402 514.41467"
   version="1.1"
   id="svg931"
   sodipodi:docname="cubos.svg"
   inkscape:version="0.92.3 (2405546, 2018-03-11)">
  <metadata
     id="metadata937">
    <rdf:RDF>
      <cc:Work
         rdf:about="">
        <dc:format>image/svg+xml</dc:format>
        <dc:type
           rdf:resource="http://purl.org/dc/dcmitype/StillImage" />
        <dc:title></dc:title>
      </cc:Work>
    </rdf:RDF>
  </metadata>
  <defs
     id="defs935" />
  <sodipodi:namedview
     pagecolor="#ffffff"
     bordercolor="#666666"
     borderopacity="1"
     objecttolerance="10"
     gridtolerance="10"
     guidetolerance="10"
     inkscape:pageopacity="0"
     inkscape:pageshadow="2"
     inkscape:window-width="1366"
     inkscape:window-height="705"
     id="namedview933"
     showgrid="false"
     inkscape:pagecheckerboard="true"
     inkscape:zoom="0.57315341"
     inkscape:cx="454.11329"
     inkscape:cy="358.71347"
     inkscape:window-x="-8"
     inkscape:window-y="-8"
     inkscape:window-maximized="1"
     inkscape:current-layer="svg931" />
  <g
     id="#02edf7ff"
     transform="translate(-131.28,-105.31185)">
    <path
       d="m 271.39,105.59 c 6.7,-1.09 13.54,1.1 18.83,5.23 6.35,4.96 13.67,8.38 20.56,12.48 3.41,1.95 6.09,5.57 5.88,9.63 0,3.53 -2.92,6.52 -6.24,7.31 -4.76,1 -9.8,0.36 -14.27,-1.5 -6.57,-2.47 -11.51,-8.15 -18.48,-9.72 -3.84,-1.33 -7.48,1.05 -10.78,2.71 -6.04,3.49 -12.53,6.08 -18.7,9.31 -3.51,1.94 -8.01,2.3 -11.56,0.26 -4.46,-2.31 -6.03,-8.37 -4.11,-12.84 0.79,-2.58 2.95,-4.33 5.2,-5.61 5.53,-3.17 10.85,-6.76 16.74,-9.27 5.75,-2.43 10.57,-7.1 16.93,-7.99 z"
       id="path880"
       inkscape:connector-curvature="0"
       style="opacity:1;fill:#02edf7" />
    <path
       d="m 536.37,106.46 c 3.99,-0.48 8.19,-0.33 11.92,1.31 4.47,1.94 8.18,5.2 12.5,7.42 6.38,3.38 13.52,6.04 18.4,11.61 3.13,4.23 2.24,12.31 -3.57,13.73 -7.1,1.6 -13.62,-2.39 -19.68,-5.48 -5.72,-2.89 -11,-8.22 -17.92,-7.27 -7.3,0.67 -12.3,6.63 -18.72,9.45 -5.12,2.48 -11.11,3.39 -16.67,2.06 -4.83,-1.69 -5.9,-8.57 -2.38,-12.05 6.19,-6.64 14.95,-9.88 22.69,-14.3 4.33,-2.4 8.37,-5.78 13.43,-6.48 z"
       id="path882"
       inkscape:connector-curvature="0"
       style="opacity:1;fill:#02edf7" />
    <path
       d="m 356.36,151.41 c 2.58,-0.37 5.01,0.96 7.38,1.81 6.28,2.77 13.44,4.55 18.1,9.96 3.05,3.06 4.56,8.1 2.37,12.06 -1.79,2.66 -5.1,3.99 -8.21,4 -4.26,-0.36 -7.98,-2.65 -11.67,-4.59 -4.96,-2.75 -10.26,-5.67 -13.3,-10.66 -2.32,-4.61 0.25,-11.14 5.33,-12.58 z"
       id="path884"
       inkscape:connector-curvature="0"
       style="opacity:1;fill:#02edf7" />
    <path
       d="m 190.19,152.5 c 6.24,-0.55 10.66,7.28 6.46,12.16 -6,6.82 -14.44,11.33 -23.05,14.01 -4.11,1.67 -9.04,-0.87 -10.36,-5.03 -1.41,-3.16 0.24,-6.64 2.42,-8.98 3.16,-3.36 7.31,-5.54 11.31,-7.73 4.12,-2.13 8.48,-4.32 13.22,-4.43 z"
       id="path886"
       inkscape:connector-curvature="0"
       style="opacity:1;fill:#02edf7" />
    <path
       d="m 453.36,153.08 c 3.4,-1.29 6.85,1.55 8.29,4.47 1.77,3.01 -0.54,6.32 -2.34,8.71 -4.82,5.2 -11.39,8.92 -18.4,10.07 -3.59,0.68 -7.68,-1.05 -9.25,-4.43 -1.07,-4.18 2.01,-7.87 5.15,-10.17 5.03,-3.68 10.64,-6.65 16.55,-8.65 z"
       id="path888"
       inkscape:connector-curvature="0"
       style="opacity:1;fill:#02edf7" />
    <path
       d="m 620.34,154.19 c 4.15,-1.77 8.84,-0.14 12.73,1.6 5.18,2.61 10.2,5.71 14.5,9.63 2.34,2.06 3.65,5.39 2.65,8.46 -1.1,2.39 -3.39,4.73 -6.21,4.64 -3.61,-0.12 -6.92,-1.77 -10.12,-3.27 -4.78,-2.43 -9.58,-4.97 -13.7,-8.43 -2.48,-2.06 -4.44,-5.4 -3.46,-8.7 0.75,-1.64 2.03,-3.05 3.61,-3.93 z"
       id="path890"
       inkscape:connector-curvature="0"
       style="opacity:1;fill:#02edf7" />
    <path
       d="m 406.37,181.46 c 4.26,-0.51 7.56,3.25 9.56,6.57 4.7,7.61 1.96,16.8 2.58,25.19 0.6,7.07 -0.1,14.81 -4.87,20.43 -2.09,2.46 -5.65,2.2 -8.55,2.07 -5.38,-0.23 -8.52,-5.95 -8.69,-10.81 -0.36,-8.29 0.13,-16.6 -0.12,-24.91 0.1,-4 -0.6,-8.45 1.79,-11.97 1.94,-2.98 4.69,-5.82 8.3,-6.57 z"
       id="path892"
       inkscape:connector-curvature="0"
       style="opacity:1;fill:#02edf7" />
    <path
       d="m 669.42,181.55 c 3.08,-0.72 6.58,-0.18 8.84,2.21 3.73,3.26 4.41,8.52 4.39,13.2 -0.03,10.02 0.05,20.03 -0.03,30.04 0.1,3.49 -1.57,7.19 -4.89,8.64 -4.69,2.04 -11.1,1.28 -14.24,-3.06 -2.5,-3.69 -2.09,-8.35 -2.17,-12.58 0.17,-8.59 -0.24,-17.19 0.23,-25.77 0.53,-4.98 2.64,-10.99 7.87,-12.68 z"
       id="path894"
       inkscape:connector-curvature="0"
       style="opacity:1;fill:#02edf7" />
    <path
       d="m 138.42,183.39 c 3.85,-1.89 8.64,-0.22 10.81,3.38 3.53,4.99 3,11.44 3,17.23 -0.31,7.82 0.59,15.72 -0.75,23.48 -0.73,5.57 -6.78,9.9 -12.28,8.37 -3.49,-0.71 -6.27,-3.7 -6.82,-7.2 -1.18,-6.15 -0.42,-12.44 -0.57,-18.65 0.14,-5.94 -0.51,-11.92 0.44,-17.81 0.52,-3.66 2.72,-7.25 6.17,-8.8 z"
       id="path896"
       inkscape:connector-curvature="0"
       style="opacity:1;fill:#02edf7" />
    <path
       d="m 176.4,201.3 c 3.47,-1.77 7.37,0.19 10.59,1.65 3.81,2.08 8.64,4.33 9.37,9.12 0.56,2.8 -1.62,5.07 -3.44,6.87 -2.48,2.33 -6.11,4.48 -9.52,2.79 -5.1,-2.19 -11.21,-5.6 -11.82,-11.74 -0.63,-3.63 1.77,-7 4.82,-8.69 z"
       id="path898"
       inkscape:connector-curvature="0"
       style="opacity:1;fill:#02edf7" />
    <path
       d="m 628.41,201.48 c 5.37,-2.29 12.06,0.56 14.12,6 1.44,3.24 -0.28,7.05 -2.99,9.05 -4.93,3.6 -11.55,5.56 -17.49,3.45 -3.61,-1.2 -6.77,-4.8 -6.62,-8.68 2.12,-5.34 7.96,-7.9 12.98,-9.82 z"
       id="path900"
       inkscape:connector-curvature="0"
       style="opacity:1;fill:#02edf7" />
    <path
       d="m 363.36,202.3 c 5.83,-2.31 14.15,2 13.92,8.63 -2.14,5.73 -8.37,8.56 -13.69,10.71 -5.47,2.45 -13.09,-2.36 -11.98,-8.62 0.45,-6.06 6.48,-9.39 11.75,-10.72 z"
       id="path902"
       inkscape:connector-curvature="0"
       style="opacity:1;fill:#02edf7" />
    <path
       d="m 438.34,209.98 c 1.85,-2.81 3.98,-6.08 7.69,-6.4 5.31,-0.5 11.35,1.57 14.26,6.27 2.8,3.86 -1.65,8.46 -5.4,9.38 -7,1.72 -13.34,-3.47 -16.55,-9.25 z"
       id="path904"
       inkscape:connector-curvature="0"
       style="opacity:1;fill:#02edf7" />
    <path
       d="m 239.34,229.5 c 7.36,-0.43 12.88,5.5 19.48,7.78 6.32,2.17 12.53,8.31 19.55,5.13 8.6,-4 16.43,-10 25.88,-11.96 3.22,-0.46 6.84,-0.28 9.48,1.85 4.2,3.12 4.09,10.22 -0.01,13.4 -4.98,4.2 -10.6,7.63 -16.43,10.51 -4.57,2.11 -9.68,4.68 -11.35,9.83 -2.99,7.31 0.24,15.05 -0.49,22.56 -0.7,4.52 -2.68,9.6 -7.1,11.64 -3.09,0.79 -6.53,0.93 -9.58,-0.1 -2.87,-1.72 -5.23,-4.77 -5.4,-8.21 -0.65,-8.23 0.69,-16.54 -0.51,-24.74 -0.66,-3.12 -1.34,-7.08 -4.69,-8.41 -7.22,-3.27 -14.31,-6.85 -21.11,-10.93 -7.57,-3.47 -6.43,-17.27 2.28,-18.35 z"
       id="path906"
       inkscape:connector-curvature="0"
       style="opacity:1;fill:#02edf7" />
    <path
       d="m 505.43,229.55 c 1.67,-0.36 3.43,-0.36 5.09,0.11 10.01,3.74 18.87,10.71 29.51,12.67 11.33,-1.59 20.24,-10.37 31.45,-12.55 4.17,-0.45 9.6,1.75 10.12,6.43 0.42,3.37 0.45,7.52 -2.61,9.73 -4.43,3.43 -9.29,6.34 -14.42,8.56 -4.71,1.9 -10.38,3.74 -12.11,9.11 -4.17,8.4 0.45,17.65 -1.59,26.38 -0.8,4.59 -2.82,9.34 -6.88,11.94 -2.46,1.68 -6.01,2.56 -8.58,0.62 -4.97,-3.41 -7.13,-9.72 -7.05,-15.55 0.12,-7.69 1.38,-15.68 -1.13,-23.13 -2.9,-6.32 -10.56,-7.21 -16.11,-10.12 -5.26,-2.64 -10.38,-6.29 -13.36,-11.46 -1.53,-5.25 2.36,-11.51 7.67,-12.74 z"
       id="path908"
       inkscape:connector-curvature="0"
       style="opacity:1;fill:#02edf7" />
    <path
       d="m 137.39,275.58 c 4.19,-0.68 9.34,-0.91 12.36,2.66 3.22,3.01 2.92,7.71 2.95,11.74 -0.13,9.01 0.04,18.01 -0.09,27.02 0.05,4.98 -2.67,10.09 -7.28,12.22 -4.19,1.22 -9.59,0.57 -12.27,-3.25 -2.21,-3.19 -1.67,-7.3 -1.78,-10.96 0.25,-10.34 -0.11,-20.69 0.06,-31.02 -0.24,-3.78 2.44,-7.41 6.05,-8.41 z"
       id="path910"
       inkscape:connector-curvature="0"
       style="opacity:1;fill:#02edf7" />
    <path
       d="m 669.44,275.61 c 4.65,-1.07 10.65,0.35 12.75,5.04 0.87,4.05 0.38,8.24 0.44,12.35 -0.25,9.34 0.18,18.67 0.05,28.01 0.27,6.4 -7.09,11.38 -13,9.26 -5.67,-2.69 -8.39,-9.22 -8.3,-15.24 0,-10.27 -0.25,-20.56 0.15,-30.82 0.09,-4.37 3.89,-7.66 7.91,-8.6 z"
       id="path912"
       inkscape:connector-curvature="0"
       style="opacity:1;fill:#02edf7" />
    <path
       d="m 404.4,276.48 c 3.79,-0.87 8.68,-0.42 10.6,3.5 4.73,8.99 3.88,21.23 -3.25,28.77 -1.95,2.03 -5.28,2.75 -7.74,1.25 -4.57,-2.7 -7.74,-7.66 -7.96,-13 -0.4,-4.62 -0.02,-9.35 1.12,-13.84 0.8,-3.46 3.88,-5.92 7.23,-6.68 z"
       id="path914"
       inkscape:connector-curvature="0"
       style="opacity:1;fill:#02edf7" />
    <path
       d="m 151.39,337.64 c 3.59,-0.54 7.36,-0.67 10.88,0.3 4.59,1.78 8.46,4.97 13,6.87 7.16,3.11 14.68,6.03 20.38,11.55 2.16,2.18 3.99,5.16 3.73,8.34 -0.81,4.19 -3.67,8.37 -7.97,9.51 -4.54,1.02 -9.59,0.55 -13.45,-2.24 -9.05,-6.72 -20.2,-9.9 -29.09,-16.87 -4.75,-4.56 -4.28,-15.19 2.52,-17.46 z"
       id="path916"
       inkscape:connector-curvature="0"
       style="opacity:1;fill:#02edf7" />
    <path
       d="m 654.38,337.62 c 3.33,-0.48 7.19,-0.96 10.23,0.81 4.3,4.91 3.92,13.61 -1.5,17.63 -6.22,4.46 -13.18,7.75 -20.15,10.84 -5.06,2.34 -10.18,5.34 -15.97,4.89 -5.03,0.32 -10.74,-2.35 -12.34,-7.39 -1.12,-3.74 1.89,-6.99 4.56,-9.17 6.77,-5.05 14.48,-8.72 22.41,-11.56 4.45,-1.6 8.21,-4.71 12.76,-6.05 z"
       id="path918"
       inkscape:connector-curvature="0"
       style="opacity:1;fill:#02edf7" />
    <path
       d="m 272.41,340.57 c 4.46,-0.82 9.01,1.94 11.06,5.85 1.94,3.51 2.17,7.62 2.18,11.55 0.02,12.69 -0.18,25.38 0,38.07 0.12,6.02 -1.3,12.54 -5.56,17.02 -4.28,3.92 -10.78,2.82 -15.38,0.12 -8.95,-5.29 -18.49,-9.45 -27.62,-14.4 -6.21,-3.21 -7.78,-12.56 -2.82,-17.52 2.9,-3.45 8.34,-3.86 11.98,-1.38 3.47,1.96 6.52,5.29 10.71,5.51 5.05,-0.34 6.88,-6.08 6.31,-10.37 -1,-7.3 -1.04,-14.68 -0.83,-22.03 0.14,-5.68 3.93,-11.75 9.97,-12.42 z"
       id="path920"
       inkscape:connector-curvature="0"
       style="opacity:1;fill:#02edf7" />
    <path
       d="m 537.33,345.12 c 5.1,-2.57 10.17,3.21 10.98,7.89 0.38,7.48 0.44,15.04 -0.54,22.48 -0.46,3.53 0.33,7.35 2.63,10.13 2.16,2.34 5.66,2.1 8.57,2.02 5.15,-0.21 8.97,-4.54 14,-5.1 3.14,0.5 6.77,2.9 6.59,6.46 0.08,2.51 -1.92,4.37 -3.58,5.98 -7.02,6.07 -16.04,8.86 -24.2,12.94 -3.79,1.83 -7.33,5.07 -11.8,4.65 -3.04,-0.05 -5.4,-2.52 -6.5,-5.15 -1.85,-4.56 -1.97,-9.57 -1.97,-14.42 0.06,-12.01 0.01,-24.03 0,-36.04 -0.17,-4.59 1.67,-9.5 5.82,-11.84 z"
       id="path922"
       inkscape:connector-curvature="0"
       style="opacity:1;fill:#02edf7" />
    <path
       d="m 402.33,355.15 c 8.22,-1.68 16.64,1.46 23.34,6.13 5.18,3.63 11.57,4.8 16.93,8.11 2.48,1.48 4.87,3.18 7.57,4.28 4.18,1.72 8.76,2.29 12.87,4.23 3.96,1.84 7.11,4.99 10.99,6.98 3.64,1.87 7.72,2.74 11.32,4.74 3.61,2 6.86,4.71 10.82,6.02 3.93,1.51 8.67,2.3 11.17,6.07 2.49,3.27 0.36,7.88 -2.64,10.01 -5.62,3.81 -12.52,5.12 -18.2,8.86 -6.85,4.26 -14.87,6.05 -21.74,10.29 -6.56,4.08 -14.04,6.34 -20.63,10.36 -3.64,2.19 -7.47,4.03 -11.37,5.7 -5.74,2.41 -10.69,6.47 -16.71,8.24 -3.58,1.06 -7.25,2.2 -11.02,2.03 -4.3,-0.53 -8.42,-2.06 -12.31,-3.91 -12.87,-6.92 -26,-13.35 -39.1,-19.83 -4.97,-2.79 -9.84,-5.82 -15.24,-7.71 -6.14,-2.07 -10.71,-7.07 -16.83,-9.17 -4.08,-1.59 -8.5,-2.46 -12.22,-4.87 -2.85,-1.88 -4.83,-5.93 -2.88,-9.12 2.17,-4.11 7.01,-5.45 10.95,-7.25 6.56,-2.44 11.85,-7.37 18.56,-9.49 6.71,-2.2 12.24,-6.9 18.99,-8.97 4.62,-1.44 9.39,-2.74 13.39,-5.59 5.9,-4.21 13.07,-5.99 19.16,-9.86 4.58,-2.84 9.48,-5.31 14.83,-6.28 z"
       id="path924"
       inkscape:connector-curvature="0"
       style="opacity:1;fill:#02edf7" />
    <path
       d="m 287.39,424.62 c 4.44,-0.71 9.24,-0.38 13.2,1.93 4.46,2.5 8.33,6.07 13.23,7.75 4.77,1.63 9.62,3.26 13.79,6.18 5.09,3.59 11.19,5.27 16.46,8.55 7.67,5.07 16.58,7.79 24.4,12.62 8.34,5.27 18.28,7.65 26.04,13.92 3,2.35 4.3,6.21 4.85,9.87 0.32,4.2 -0.91,8.34 -0.85,12.55 0.14,37.02 -0.04,74.03 0.09,111.04 0.19,3.95 -1.22,8.55 -5.08,10.28 -8.76,1.73 -17.21,-2.24 -24.78,-6.18 -8.95,-5.2 -18.36,-9.54 -27.42,-14.53 -8.42,-3.23 -15.71,-8.72 -24.12,-11.95 -6.28,-2.46 -11.61,-6.83 -18.02,-8.96 -3.95,-1.48 -8.37,-2.34 -11.53,-5.33 -3.56,-3.43 -5.23,-8.46 -5.24,-13.33 0.05,-42.01 0.04,-84.03 0,-126.04 0.04,-3.3 1.39,-7.49 4.98,-8.37 z"
       id="path926"
       inkscape:connector-curvature="0"
       style="opacity:1;fill:#02edf7" />
    <path
       d="m 516.4,428.37 c 3.94,-1.36 9.33,-1.57 11.94,2.31 3.39,4.12 0.82,9.54 1.03,14.28 0.01,36.68 0.07,73.37 -0.03,110.05 -0.13,6.15 1.66,12.94 -1.79,18.53 -3.24,4.83 -7.9,9 -13.62,10.52 -5.13,1.48 -10.18,3.32 -14.7,6.21 -4.63,2.92 -9.97,4.21 -15.06,6.04 -3.76,1.36 -7.23,3.35 -10.78,5.16 -7.09,3.76 -15.43,4.41 -22.28,8.72 -7.34,4.66 -15.69,7.56 -24.24,8.97 -3.16,0.61 -7.22,-0.52 -8.24,-3.91 -1.77,-5.37 -0.61,-11.12 -1.39,-16.64 -1.11,-6.54 0.78,-13.05 0.47,-19.61 -0.3,-16.34 0.34,-32.68 -0.41,-49 0.41,-10.65 0.53,-21.31 0.25,-31.97 -0.15,-5.71 -2.73,-12.27 1.19,-17.28 7.73,-9.44 19.91,-12.91 30.01,-19.05 6.82,-4.25 15.06,-5.61 21.58,-10.42 5.9,-4.4 13.38,-5.58 19.57,-9.45 5.88,-3.68 12.35,-6.23 18.4,-9.59 2.64,-1.41 5.25,-2.92 8.1,-3.87 z"
       id="path928"
       inkscape:connector-curvature="0"
       style="opacity:1;fill:#02edf7" />
  </g>
</svg>
