<?xml version="1.0" encoding="UTF-8" standalone="no"?>
<svg
   xmlns:dc="http://purl.org/dc/elements/1.1/"
   xmlns:cc="http://creativecommons.org/ns#"
   xmlns:rdf="http://www.w3.org/1999/02/22-rdf-syntax-ns#"
   xmlns:svg="http://www.w3.org/2000/svg"
   xmlns="http://www.w3.org/2000/svg"
   xmlns:sodipodi="http://sodipodi.sourceforge.net/DTD/sodipodi-0.dtd"
   xmlns:inkscape="http://www.inkscape.org/namespaces/inkscape"
   width="469.37579pt"
   height="514.22638pt"
   viewBox="0 0 469.37579 514.22638"
   version="1.1"
   id="svg979"
   sodipodi:docname="cubo.svg"
   inkscape:version="0.92.3 (2405546, 2018-03-11)">
  <metadata
     id="metadata985">
    <rdf:RDF>
      <cc:Work
         rdf:about="">
        <dc:format>image/svg+xml</dc:format>
        <dc:type
           rdf:resource="http://purl.org/dc/dcmitype/StillImage" />
        <dc:title></dc:title>
      </cc:Work>
    </rdf:RDF>
  </metadata>
  <defs
     id="defs983" />
  <sodipodi:namedview
     pagecolor="#ffffff"
     bordercolor="#666666"
     borderopacity="1"
     objecttolerance="10"
     gridtolerance="10"
     guidetolerance="10"
     inkscape:pageopacity="0"
     inkscape:pageshadow="2"
     inkscape:window-width="1366"
     inkscape:window-height="705"
     id="namedview981"
     showgrid="false"
     inkscape:pagecheckerboard="true"
     inkscape:zoom="0.26981707"
     inkscape:cx="304.81267"
     inkscape:cy="362.15115"
     inkscape:window-x="-8"
     inkscape:window-y="-8"
     inkscape:window-maximized="1"
     inkscape:current-layer="svg979" />
  <g
     id="#02edf8ff"
     transform="translate(-87.390493,-85.386973)">
    <path
       d="m 319.49,85.94 c 4.52,-0.95 9.39,-0.75 13.64,1.18 4.57,2.07 8.96,4.5 13.61,6.4 6.68,2.77 12.65,6.98 19.42,9.57 7.76,2.96 14.88,7.33 22.59,10.4 6.47,2.62 12.25,6.69 18.82,9.08 4.79,1.74 9.63,3.41 14.13,5.85 6.78,3.64 13.89,6.63 20.61,10.4 6.85,3.92 14.86,5.17 21.56,9.4 5.82,3.66 12.41,5.71 18.62,8.54 10,5.02 20.07,9.89 30.19,14.64 8.65,3.15 17.08,7.06 24.5,12.56 1.68,1.38 3.86,3.19 3.26,5.65 -0.77,2.78 -3.35,4.5 -5.58,6.08 -6.64,4.22 -13.45,8.17 -20.55,11.57 -6.87,3.28 -13.3,8.69 -21.33,8.34 -5.05,0.36 -9.25,-2.77 -13.19,-5.45 -4.93,-3.45 -10.65,-5.43 -15.96,-8.18 -13.57,-7.52 -28.41,-12.44 -41.95,-20.03 -4.49,-2.67 -9.09,-5.16 -13.92,-7.15 -6.94,-2.85 -13.26,-7.01 -20.32,-9.61 -4.94,-1.81 -9.78,-3.93 -14.34,-6.59 -6.72,-3.87 -14.07,-6.42 -20.87,-10.14 -6.46,-3.45 -13.4,-5.84 -19.93,-9.16 -3.49,-1.54 -7.32,-3.65 -11.24,-2.4 -4.65,1.37 -8.8,3.98 -13.24,5.89 -4.81,2.12 -9.54,4.41 -14.09,7.04 -6.05,3.56 -12.87,5.55 -18.93,9.1 -9.55,5.88 -20.22,9.55 -30.17,14.65 -8.52,3.41 -15.7,9.29 -24.06,13 -5.89,2.71 -11.56,5.86 -17.5,8.44 -7.57,3.21 -14.29,8.11 -21.96,11.13 -7.65,3.07 -14.69,8.75 -23.33,8.41 -7.7,0.13 -13.97,-4.92 -20.66,-7.96 -6.35,-2.87 -12.15,-6.83 -18.65,-9.35 -3.97,-1.77 -8.85,-2.61 -11.54,-6.34 -1.71,-2.64 0.26,-5.67 2.26,-7.48 8.59,-8.12 20.9,-9.4 30.92,-14.97 6.53,-3.57 13.35,-6.57 19.91,-10.07 6.45,-3.46 13.6,-5.42 19.89,-9.18 4.52,-2.72 9.34,-4.89 14.33,-6.57 6.44,-2.15 12.24,-5.75 18.4,-8.54 7.62,-3.29 14.7,-7.77 22.63,-10.37 7.41,-2.38 13.41,-7.65 20.73,-10.25 4.75,-1.75 9.34,-3.91 13.89,-6.13 6.01,-2.92 12.96,-3.73 18.41,-7.79 3.91,-2.91 8.03,-5.66 12.75,-7.05 6.21,-1.85 11.97,-4.94 18.24,-6.56 z"
       id="path966"
       inkscape:connector-curvature="0"
       style="opacity:1;fill:#02edf8" />
    <path
       d="m 301.57,166.87 c 3.61,-0.84 8.81,-1.24 10.83,2.64 1.81,4.24 0.99,9.01 1.14,13.49 -0.09,48.66 -0.02,97.33 -0.03,146 -0.1,5.51 0.44,11.06 -0.31,16.54 -0.64,3.91 -3.99,6.44 -7.05,8.53 -6.92,4.55 -13.77,9.29 -21.4,12.61 -10.13,4.45 -18.91,11.36 -28.97,15.94 -4.26,2 -8.46,4.15 -12.48,6.61 -7.35,4.54 -15.55,7.47 -22.91,12.01 -8.25,4.4 -15.88,9.93 -24.5,13.64 -6.79,2.87 -12.83,8.92 -20.76,7.74 -4.26,0.28 -6.35,-4.15 -6.44,-7.79 -0.11,-4.96 0.99,-9.86 0.85,-14.83 -0.06,-41 -0.02,-82 -0.04,-123 -0.07,-9.55 0.46,-19.13 -0.82,-28.63 -0.71,-5.38 0.45,-11.28 4.57,-15.09 7.25,-7.9 18.41,-9.33 27.22,-14.76 6.58,-3.95 13.9,-6.49 20.45,-10.52 5.93,-3.64 12.52,-6.02 18.54,-9.48 9.86,-5.73 20.03,-10.93 30.43,-15.59 6.01,-2.84 11.59,-6.49 17.6,-9.34 4.73,-2.15 9.08,-5.18 14.08,-6.72 z"
       id="path968"
       inkscape:connector-curvature="0"
       style="opacity:1;fill:#02edf8" />
    <path
       d="m 341.3,167.29 c 3.66,-0.39 6.98,1.51 10.12,3.14 6.07,3.38 12.58,5.91 18.53,9.51 5.77,3.49 12.18,5.71 18.1,8.91 11.52,6.67 24.52,10.22 36.05,16.9 9.21,5.52 19.47,8.88 28.77,14.21 6.97,3.82 15.19,4.73 21.88,9.16 5.22,3.3 11.06,7.95 10.8,14.8 0,51.7 -0.05,103.41 0,155.12 -0.02,5.87 1.94,11.84 0.38,17.65 -1.24,4.04 -5.96,5.74 -9.82,4.73 -5.67,-1.51 -10.28,-5.41 -15.65,-7.64 -9.27,-3.88 -18.08,-8.73 -27.14,-13.04 -8.87,-4.82 -18.19,-8.77 -26.7,-14.22 -8.48,-4.57 -16.66,-9.74 -25.58,-13.41 -3.67,-1.54 -7.15,-3.47 -10.6,-5.45 -6.47,-3.81 -13.86,-5.73 -20.19,-9.81 -4.48,-2.87 -9.42,-5.15 -13.32,-8.83 -3.64,-3.66 -3.52,-9.21 -3.55,-14 0.2,-52.37 0.01,-104.74 0.1,-157.11 -0.16,-4.7 2.5,-10.42 7.82,-10.62 z"
       id="path970"
       inkscape:connector-curvature="0"
       style="opacity:1;fill:#02edf8" />
    <path
       d="m 92.49,206.5 c 4.85,-0.44 8.9,2.9 13.03,4.92 8.42,4.27 16.3,9.63 25.16,13.01 6.5,2.53 13.01,5.9 17.4,11.5 1.85,2.24 2.49,5.18 2.49,8.02 -0.17,62.03 0.06,124.06 -0.1,186.09 0.03,5.09 -0.46,10.21 0.16,15.28 0.46,3.51 3.02,6.26 5.76,8.28 7.76,5.7 16.88,9.05 25.14,13.93 4.09,2.4 8.34,4.51 12.69,6.4 6.4,2.81 12.35,6.55 18.84,9.19 6.88,2.83 12.98,7.21 19.84,10.1 15.3,6.74 29.59,15.53 44.96,22.11 10.91,5.79 22.53,10.72 31.84,19.03 2.24,1.9 3.91,4.6 3.82,7.64 0.23,7.99 -0.19,16 -0.05,24 -0.12,8.48 2.04,16.95 0.69,25.41 -0.74,4.51 -4.83,9.25 -9.8,8 -6.76,-1.63 -12.11,-6.36 -17.87,-9.97 -5.82,-3.94 -12.79,-5.6 -18.79,-9.19 -7.75,-4.74 -16.3,-8 -23.84,-13.09 -9.98,-5.44 -19.72,-11.34 -30.01,-16.21 -12.31,-6.09 -23.54,-14.13 -36.03,-19.89 -12.52,-7.17 -25.53,-13.5 -37.73,-21.23 -4.24,-2.65 -8.83,-4.62 -13.34,-6.73 -6.42,-3 -12.08,-7.33 -18.34,-10.6 -5.32,-3.02 -11.12,-5.25 -15.99,-9.01 -3.57,-2.66 -4.93,-7.24 -4.94,-11.52 -0.19,-19.32 0.46,-38.64 0.04,-57.95 -0.01,-61.67 0.03,-123.34 -0.03,-185.02 0.09,-5.42 -0.5,-10.9 0.45,-16.27 0.58,-2.5 1.78,-5.58 4.55,-6.23 z"
       id="path972"
       inkscape:connector-curvature="0"
       style="opacity:1;fill:#02edf8" />
    <path
       d="m 549.34,211.84 c 1.89,-1.04 3.81,0.47 5.02,1.87 1.88,2.28 2.22,5.36 2.32,8.21 -0.12,79.69 -0.06,159.38 -0.04,239.08 -0.28,5.6 1.15,11.75 -1.61,16.91 -3.44,4.67 -9.26,6.46 -14.14,9.2 -6.06,3.04 -11.81,6.64 -17.36,10.51 -6.34,4.45 -14.06,6.25 -20.49,10.54 -11.16,7.19 -23.36,12.53 -34.78,19.25 -6.26,3.82 -13.21,6.44 -19.21,10.71 -5.08,3.65 -10.93,5.95 -16.51,8.69 -14.45,7.67 -28.36,16.32 -42.69,24.21 -8.88,4.41 -17.53,9.26 -26.38,13.73 -6.66,3.36 -12.02,9.5 -19.58,10.88 -4.5,0.89 -7.93,-3.61 -8.31,-7.67 -0.99,-8.96 0.11,-17.97 0.68,-26.91 0.29,-7.31 -4.31,-15.51 0.58,-22.09 8.17,-10.46 22.15,-12.41 32.64,-19.58 6.48,-4.23 14.57,-4.77 21.06,-8.98 6.7,-4.3 14.11,-7.27 21.17,-10.89 3.87,-1.98 7.92,-3.6 11.97,-5.18 6.51,-2.54 12.32,-6.53 18.79,-9.15 7.18,-2.9 13.51,-7.5 20.74,-10.32 6.75,-2.72 12.89,-6.76 19.76,-9.2 7.82,-2.79 15.3,-6.76 21.66,-12.12 3.65,-3.04 4.75,-7.95 4.78,-12.49 -0.05,-65.03 0,-130.07 -0.05,-195.11 -0.05,-4.45 0.82,-9.21 4,-12.53 4.25,-4.52 10.26,-6.62 15.46,-9.78 6.92,-3.78 13.05,-9.05 20.52,-11.79 z"
       id="path974"
       inkscape:connector-curvature="0"
       style="opacity:1;fill:#02edf8" />
    <path
       d="m 322.37,372.12 c 9.92,-0.63 18.41,5.79 26.24,11.06 11.05,6.62 22.97,11.61 34.32,17.67 5.8,2.92 11.92,5.22 17.48,8.62 6.58,4.07 14.11,6.22 20.73,10.22 7.42,4.56 15.74,7.35 23.28,11.7 4.94,2.84 10.6,4.46 15.09,8.07 2.79,2.17 4.54,6.77 1.7,9.61 -4.11,4.09 -10.21,4.8 -15.29,7.17 -10.09,4.7 -20.53,8.74 -29.88,14.88 -10.31,4.85 -20.55,9.88 -31.12,14.17 -12.53,5.68 -24.27,13.05 -37.2,17.82 -7.73,2.82 -14.07,9.49 -22.7,9.6 -5.41,0.49 -10.44,-1.88 -14.92,-4.65 -6.38,-3.95 -13.65,-6.1 -20.05,-10 -7.45,-4.65 -16.13,-6.7 -23.66,-11.2 -8.92,-4.29 -17.03,-10.11 -26.26,-13.75 -3.68,-1.54 -7.16,-3.49 -10.55,-5.57 -6.16,-3.87 -13.51,-5.34 -19.48,-9.57 -4.41,-3.15 -9.51,-5.12 -14.02,-8.08 -3.02,-1.7 -3.64,-5.88 -2.15,-8.77 2.05,-2.63 5.29,-3.85 8.14,-5.36 6.02,-2.79 11.29,-6.95 17.43,-9.48 4.55,-1.85 8.9,-4.15 12.97,-6.89 5.38,-3.55 11.51,-5.7 16.99,-9.05 11.51,-7.14 23.53,-13.43 35.65,-19.47 9.28,-5.6 18.92,-10.54 28.55,-15.51 2.78,-1.36 5.63,-2.7 8.71,-3.24 z"
       id="path976"
       inkscape:connector-curvature="0"
       style="opacity:1;fill:#02edf8" />
  </g>
</svg>
