<?xml version="1.0" encoding="UTF-8" ?>
<!DOCTYPE svg PUBLIC "-//W3C//DTD SVG 1.1//EN" "http://www.w3.org/Graphics/SVG/1.1/DTD/svg11.dtd">
<svg width="2856pt" height="416pt" viewBox="0 0 2856 416" version="1.1" xmlns="http://www.w3.org/2000/svg">
<g id="#2d3e56ff">
</g>
<g id="#02d7f6ff">
<path fill="#02d7f6" opacity="1.00" d=" M 170.41 71.71 C 178.59 70.95 186.80 71.56 195.00 71.43 C 202.84 71.50 210.83 70.66 218.52 72.61 C 223.99 73.89 229.19 76.15 234.05 78.95 C 240.69 83.33 245.23 90.15 248.73 97.16 C 252.93 106.50 252.88 116.96 252.65 127.00 C 252.87 141.19 252.17 155.49 249.13 169.38 C 248.11 175.80 247.51 182.35 245.36 188.52 C 244.12 192.41 242.50 196.25 242.19 200.37 C 241.80 204.72 241.38 209.08 241.23 213.45 C 240.37 226.46 235.11 238.59 233.22 251.42 C 232.34 256.68 231.98 262.01 231.00 267.26 C 230.15 271.74 227.72 275.68 225.60 279.66 C 223.29 283.82 221.67 288.32 219.36 292.48 C 214.64 301.30 207.46 308.54 199.46 314.44 C 194.36 318.70 188.40 321.88 182.08 323.92 C 176.96 325.54 171.89 327.45 166.54 328.17 C 163.05 328.67 159.57 329.68 156.02 329.35 C 152.36 328.99 148.68 329.30 145.04 328.85 C 140.43 328.28 135.78 328.98 131.17 328.46 C 125.03 327.86 119.29 325.43 113.55 323.33 C 107.88 321.22 103.35 317.05 99.26 312.73 C 96.66 309.97 94.07 307.07 92.61 303.53 C 90.93 299.56 90.02 295.34 88.98 291.18 C 87.92 286.60 86.49 282.11 85.84 277.45 C 84.60 269.33 85.52 261.05 87.31 253.09 C 88.86 245.97 89.95 238.77 90.84 231.54 C 91.86 222.84 93.79 214.27 94.73 205.56 C 95.45 199.78 96.91 194.13 98.69 188.61 C 102.40 176.71 102.08 164.11 104.13 151.91 C 105.26 143.29 109.07 135.35 111.05 126.94 C 112.10 123.26 112.55 119.41 114.04 115.87 C 116.99 110.03 120.71 104.64 124.22 99.13 C 127.57 94.59 131.70 90.66 135.86 86.87 C 140.16 82.89 145.58 80.54 150.55 77.56 C 156.59 74.05 163.47 72.21 170.41 71.71 M 180.40 105.52 C 175.67 106.87 171.71 109.93 167.85 112.86 C 163.79 115.76 161.88 120.58 159.89 124.96 C 158.07 129.35 155.38 133.35 153.95 137.90 C 152.83 141.46 152.13 145.15 151.79 148.87 C 151.14 156.81 150.39 164.79 148.56 172.56 C 146.75 181.73 143.84 190.67 142.93 200.00 C 141.73 212.97 140.10 225.98 136.53 238.54 C 133.91 247.80 132.69 257.37 131.94 266.94 C 131.28 272.11 131.76 277.46 133.61 282.35 C 136.58 288.56 143.22 291.99 149.68 293.39 C 155.93 294.08 162.75 293.69 168.14 290.13 C 172.59 286.22 176.33 281.55 179.49 276.55 C 182.12 272.40 182.94 267.46 183.58 262.68 C 184.45 257.67 185.09 252.59 186.72 247.76 C 191.41 233.53 192.88 218.54 194.75 203.75 C 195.36 198.84 196.84 194.09 198.34 189.39 C 201.42 180.41 200.97 170.78 202.58 161.52 C 204.06 149.93 207.80 138.71 208.32 126.99 C 208.41 123.73 207.74 120.47 206.54 117.45 C 201.81 108.31 190.60 102.13 180.40 105.52 Z" />
<path fill="#02d7f6" opacity="1.00" d=" M 297.43 72.54 C 303.20 71.04 309.14 72.51 315.00 72.22 C 320.01 72.00 325.20 71.31 330.06 72.98 C 332.25 74.05 333.84 76.26 334.48 78.59 C 335.23 84.86 332.82 90.90 332.01 97.05 C 330.27 109.02 329.06 121.11 325.78 132.79 C 322.66 143.77 322.28 155.24 320.39 166.45 C 318.73 175.72 317.87 185.15 315.27 194.24 C 313.52 199.91 312.26 205.74 311.58 211.64 C 311.09 219.02 310.31 226.42 308.67 233.65 C 307.09 241.25 306.44 249.03 304.45 256.55 C 303.60 261.19 302.04 266.02 303.38 270.72 C 304.73 276.72 306.97 282.54 310.23 287.76 C 312.94 291.39 317.46 293.89 322.06 293.66 C 328.32 293.83 334.70 291.62 339.27 287.28 C 343.00 283.69 347.00 280.25 349.83 275.87 C 351.92 272.72 352.44 268.89 353.23 265.27 C 354.29 260.00 355.77 254.81 357.81 249.83 C 362.01 239.57 361.68 228.30 363.61 217.54 C 364.90 210.95 365.18 204.20 366.83 197.68 C 367.84 193.26 369.77 189.09 370.44 184.59 C 371.82 176.61 372.29 168.52 373.62 160.53 C 375.16 147.13 379.05 134.15 380.81 120.79 C 382.06 111.95 384.66 103.35 385.50 94.46 C 386.06 89.57 386.30 84.57 387.91 79.88 C 389.08 76.35 392.28 73.83 395.79 72.86 C 402.07 71.29 408.58 71.89 414.99 71.73 C 419.03 71.64 423.18 71.66 427.05 72.97 C 429.24 74.04 430.85 76.24 431.47 78.57 C 431.69 82.78 430.98 86.96 430.11 91.07 C 429.14 95.60 428.77 100.24 427.78 104.76 C 426.20 111.98 424.39 119.18 423.55 126.53 C 422.73 132.99 421.73 139.43 420.85 145.88 C 420.13 153.33 419.24 160.84 416.92 167.99 C 412.90 182.21 411.69 196.99 409.64 211.57 C 407.33 224.95 403.80 238.08 401.39 251.44 C 400.55 256.09 400.28 260.83 399.32 265.46 C 398.47 269.67 395.94 273.24 394.20 277.11 C 392.45 280.59 391.48 284.40 389.81 287.92 C 385.39 297.20 379.03 305.54 371.20 312.20 C 365.51 317.86 357.96 321.15 350.33 323.28 C 343.41 325.55 336.39 327.85 329.06 328.29 C 325.47 328.37 321.96 327.32 318.37 327.55 C 314.57 327.88 310.77 327.38 306.97 327.66 C 301.59 328.26 296.39 326.34 291.34 324.72 C 285.33 322.53 278.85 320.49 274.37 315.64 C 270.31 311.93 266.76 307.57 264.38 302.59 C 263.09 297.72 263.11 292.62 262.23 287.67 C 261.18 283.11 259.36 278.70 258.85 274.02 C 258.97 267.52 261.33 261.32 261.68 254.83 C 262.66 248.38 262.24 241.81 263.55 235.41 C 264.60 226.64 266.56 218.03 268.46 209.42 C 271.13 195.07 273.05 180.60 275.10 166.15 C 276.71 154.68 280.72 143.71 282.31 132.23 C 282.80 126.38 283.08 120.51 283.81 114.69 C 285.08 108.25 287.31 102.04 288.77 95.64 C 289.61 90.12 290.20 84.55 291.04 79.04 C 292.10 76.16 294.24 73.16 297.43 72.54 Z" />
<path fill="#02d7f6" opacity="1.00" d=" M 455.43 72.51 C 461.22 71.16 467.14 72.32 473.00 72.26 C 485.33 72.19 497.67 72.41 510.00 71.94 C 522.66 72.34 535.33 72.16 548.00 72.27 C 554.54 72.37 561.11 71.73 567.63 72.50 C 570.82 72.86 573.86 75.28 574.58 78.46 C 575.06 84.40 573.58 90.29 571.82 95.91 C 571.10 98.16 569.76 100.58 567.36 101.32 C 563.33 102.43 559.11 102.37 554.99 101.96 C 549.55 101.39 544.05 101.74 538.69 102.69 C 535.31 103.28 531.99 105.54 530.91 108.90 C 530.21 112.77 529.48 116.66 529.36 120.61 C 529.21 125.57 527.06 130.13 525.98 134.91 C 522.96 144.92 522.46 155.44 520.57 165.68 C 519.14 174.37 518.17 183.18 515.70 191.66 C 513.33 199.27 512.98 207.26 512.12 215.13 C 511.02 223.73 509.42 232.25 507.77 240.76 C 505.25 252.47 502.02 264.11 501.26 276.12 C 500.43 281.75 500.69 287.56 498.94 293.03 C 497.88 296.58 496.72 300.10 495.76 303.69 C 494.32 309.18 494.23 314.97 492.36 320.36 C 491.26 323.25 489.23 326.14 486.21 327.18 C 482.53 327.99 478.73 327.80 474.99 327.86 C 469.13 327.76 463.18 328.94 457.40 327.49 C 454.50 326.99 451.66 325.52 450.03 323.01 C 448.80 320.55 448.64 317.71 448.92 315.02 C 449.35 310.58 450.10 306.19 450.81 301.79 C 452.18 293.39 453.12 284.93 454.70 276.58 C 456.29 267.69 458.65 258.95 460.00 250.02 C 463.22 229.81 465.94 209.49 470.53 189.53 C 472.44 180.55 472.51 171.30 474.32 162.30 C 475.83 151.17 480.10 140.61 481.42 129.44 C 482.18 123.89 483.39 118.40 483.98 112.82 C 484.13 111.06 484.36 109.17 483.53 107.53 C 482.31 104.38 478.92 102.78 475.79 102.22 C 468.81 101.01 461.66 102.55 454.68 101.28 C 451.35 100.53 447.47 98.72 447.02 94.90 C 446.45 89.75 447.23 84.49 448.51 79.49 C 449.23 76.10 451.87 73.00 455.43 72.51 Z" />
<path fill="#02d7f6" opacity="1.00" d=" M 603.36 72.47 C 611.22 71.87 619.12 71.53 627.00 72.00 C 636.66 72.55 646.33 72.10 655.99 71.77 C 665.86 72.00 675.70 73.22 685.45 74.70 C 690.03 75.33 694.16 77.58 698.14 79.81 C 702.37 82.45 706.64 85.32 709.56 89.44 C 711.95 92.72 713.23 96.61 714.70 100.35 C 716.61 105.20 718.47 110.09 719.95 115.09 C 721.03 118.52 720.38 122.12 720.55 125.64 C 720.64 128.43 720.42 131.23 719.97 133.99 C 719.35 137.58 719.51 141.24 718.88 144.82 C 717.43 153.14 714.92 161.23 713.47 169.56 C 711.67 180.26 710.97 191.13 708.78 201.77 C 706.95 209.42 704.95 217.04 703.76 224.83 C 702.03 236.33 700.57 247.88 698.33 259.29 C 697.06 265.40 693.93 270.86 691.70 276.64 C 688.50 285.25 684.80 293.83 679.24 301.22 C 675.59 305.61 670.92 308.98 666.46 312.48 C 661.80 315.88 657.32 319.82 651.77 321.70 C 646.02 323.60 640.04 324.64 634.20 326.20 C 630.23 327.25 626.13 327.67 622.07 328.14 C 617.88 328.59 613.74 327.60 609.58 327.33 C 601.05 326.65 592.54 328.11 584.00 327.83 C 579.00 327.72 574.00 327.64 569.01 327.91 C 564.98 328.13 560.81 328.33 556.93 327.06 C 554.19 325.58 553.11 322.23 552.56 319.36 C 552.18 314.01 552.38 308.61 553.38 303.33 C 554.51 294.56 555.72 285.73 558.32 277.25 C 560.38 270.37 561.51 263.27 562.13 256.14 C 563.36 247.68 564.21 239.16 565.90 230.78 C 566.90 225.66 568.49 220.68 569.58 215.57 C 572.05 205.25 572.34 194.59 574.13 184.16 C 576.15 172.16 579.09 160.35 581.47 148.42 C 583.55 136.52 584.11 124.41 586.53 112.56 C 588.26 104.98 591.58 97.67 591.66 89.79 C 591.90 85.94 592.37 82.07 593.30 78.32 C 594.71 74.16 599.38 72.66 603.36 72.47 M 640.45 102.56 C 637.29 103.14 634.96 105.79 633.58 108.54 C 631.36 113.97 631.41 119.93 630.67 125.66 C 629.79 134.76 627.74 143.69 625.51 152.54 C 623.43 161.39 622.13 170.40 621.53 179.46 C 621.22 184.38 620.15 189.22 619.06 194.01 C 616.81 202.48 615.82 211.22 613.79 219.74 C 611.59 228.85 611.00 238.23 609.42 247.44 C 607.92 254.62 606.07 261.74 605.02 269.01 C 604.06 275.82 601.45 282.57 602.49 289.53 C 603.20 293.46 606.74 297.44 611.06 296.72 C 615.25 297.04 619.49 296.63 623.54 295.43 C 630.48 293.91 636.36 289.18 640.47 283.51 C 643.91 278.87 647.49 274.28 650.08 269.09 C 651.69 265.04 651.74 260.58 652.43 256.32 C 653.08 249.19 654.91 242.26 656.24 235.25 C 657.63 227.20 659.36 219.22 661.27 211.28 C 663.56 200.28 663.12 188.89 665.95 177.98 C 670.64 160.71 673.38 142.89 673.81 124.99 C 673.95 120.57 673.42 115.85 670.88 112.10 C 667.97 108.10 663.35 105.89 658.88 104.08 C 653.02 102.12 646.52 100.65 640.45 102.56 Z" />
<path fill="#02d7f6" opacity="1.00" d=" M 811.39 72.47 C 815.57 72.04 819.79 71.60 824.01 71.95 C 834.64 72.83 845.39 71.29 855.97 72.92 C 863.96 74.96 871.84 78.40 877.93 84.06 C 884.41 91.30 889.93 99.97 891.36 109.74 C 892.76 123.54 892.36 137.44 891.36 151.26 C 890.37 158.59 888.16 165.68 886.99 172.98 C 886.36 179.46 885.12 185.89 883.22 192.13 C 881.44 197.50 881.21 203.20 880.65 208.78 C 880.31 215.94 878.86 223.00 876.92 229.89 C 874.60 237.72 872.96 245.74 871.88 253.83 C 870.93 260.72 870.86 268.05 867.15 274.17 C 862.51 282.27 859.42 291.26 853.69 298.71 C 849.49 305.08 843.31 309.72 837.44 314.44 C 832.64 318.37 827.04 321.32 821.09 323.05 C 810.15 326.48 798.62 329.02 787.11 327.58 C 777.37 327.60 767.48 326.89 758.19 323.79 C 754.83 322.71 751.39 321.61 748.58 319.42 C 744.12 315.92 739.86 312.09 736.53 307.48 C 733.65 303.77 732.60 299.09 731.29 294.68 C 729.37 287.22 726.34 279.99 725.65 272.27 C 725.37 264.99 727.75 257.98 728.84 250.86 C 731.42 234.41 734.00 217.96 736.72 201.55 C 737.56 195.55 739.84 189.89 740.91 183.95 C 743.35 171.57 743.12 158.77 746.57 146.58 C 748.81 138.74 751.44 131.00 752.96 122.97 C 753.88 117.45 756.87 112.60 760.04 108.09 C 762.56 104.57 764.52 100.65 767.39 97.38 C 770.92 93.27 774.72 89.37 778.91 85.92 C 782.73 82.81 787.25 80.79 791.63 78.62 C 797.81 75.51 804.48 73.18 811.39 72.47 M 820.40 105.51 C 815.93 106.85 812.03 109.56 808.42 112.44 C 802.15 117.11 800.36 125.16 796.63 131.65 C 790.77 142.13 791.97 154.50 789.95 165.95 C 788.04 177.39 784.14 188.43 782.93 200.00 C 781.72 212.97 780.10 225.98 776.53 238.54 C 774.01 247.48 772.75 256.72 772.04 265.97 C 771.29 271.68 771.58 277.71 773.94 283.02 C 778.21 290.47 787.35 294.19 795.69 293.64 C 800.87 293.46 806.58 292.24 810.21 288.23 C 813.89 284.53 817.18 280.41 819.87 275.92 C 822.39 271.63 823.01 266.61 823.72 261.78 C 824.56 257.07 825.17 252.30 826.72 247.76 C 831.31 233.81 832.84 219.13 834.63 204.63 C 835.41 198.33 837.36 192.26 839.23 186.22 C 840.71 180.17 841.17 173.93 841.74 167.75 C 842.90 157.75 844.93 147.88 847.02 138.03 C 847.97 131.97 849.22 125.61 847.30 119.60 C 846.28 115.55 843.25 112.45 840.17 109.82 C 834.91 105.13 827.13 103.40 820.40 105.51 Z" />
<path fill="#02d7f6" opacity="1.00" d=" M 979.40 72.42 C 990.26 71.94 1001.13 72.40 1012.00 72.19 C 1017.05 72.18 1022.15 72.09 1027.17 72.81 C 1031.67 73.74 1035.80 75.95 1039.81 78.13 C 1043.83 80.65 1048.24 82.94 1051.10 86.88 C 1056.33 93.76 1060.54 101.79 1061.43 110.51 C 1061.88 115.32 1062.30 120.16 1061.97 125.00 C 1061.62 134.83 1062.20 144.77 1060.33 154.48 C 1059.77 159.58 1058.60 164.57 1057.39 169.54 C 1056.48 175.55 1055.76 181.60 1054.53 187.55 C 1053.42 192.22 1051.80 196.81 1051.56 201.64 C 1051.32 206.56 1050.78 211.46 1050.32 216.36 C 1049.36 224.93 1046.38 233.06 1044.45 241.42 C 1042.51 249.10 1041.91 257.01 1040.90 264.84 C 1039.94 271.80 1035.40 277.38 1032.73 283.68 C 1028.17 293.99 1021.92 303.96 1012.55 310.54 C 1008.11 314.54 1003.24 318.08 998.03 321.02 C 991.12 324.48 983.34 325.36 975.86 326.89 C 965.30 328.88 954.59 327.17 943.98 326.80 C 939.03 326.84 933.96 326.63 929.31 324.75 C 924.97 322.98 920.49 321.21 916.92 318.07 C 912.28 314.08 907.59 309.94 904.36 304.68 C 902.11 300.66 901.58 295.99 900.35 291.62 C 898.78 285.10 895.77 278.81 895.83 272.00 C 896.49 261.71 899.08 251.67 900.40 241.47 C 901.55 234.14 902.24 226.75 903.51 219.45 C 904.92 211.06 905.75 202.51 908.44 194.40 C 910.56 188.04 911.44 181.33 911.66 174.65 C 912.89 161.44 915.63 148.38 919.80 135.79 C 922.08 129.34 922.71 122.43 925.10 116.03 C 927.48 110.98 930.69 106.37 933.81 101.76 C 939.92 91.70 949.51 84.14 959.98 79.00 C 965.97 75.66 972.45 72.73 979.40 72.42 M 996.12 104.57 C 989.28 105.22 982.97 108.57 977.38 112.39 C 973.13 115.23 971.69 120.39 969.76 124.83 C 967.50 130.55 964.22 135.93 963.12 142.05 C 962.15 146.97 961.58 151.95 961.02 156.94 C 960.04 163.73 958.45 170.41 957.20 177.15 C 955.57 186.24 953.06 195.20 952.49 204.45 C 951.55 214.28 949.86 224.02 947.72 233.65 C 946.14 239.54 944.70 245.46 943.42 251.43 C 942.53 255.56 942.70 259.82 941.96 263.98 C 941.29 267.99 941.57 272.06 941.80 276.10 C 943.21 285.79 952.03 294.20 962.01 294.22 C 968.85 293.65 976.02 291.97 981.30 287.31 C 985.16 283.40 988.44 278.88 990.94 273.98 C 993.38 269.28 993.83 263.92 994.89 258.81 C 996.11 251.74 998.66 244.99 999.94 237.94 C 1001.63 228.74 1002.82 219.47 1004.15 210.22 C 1004.97 204.46 1005.50 198.62 1007.07 192.98 C 1008.15 189.13 1009.30 185.29 1010.30 181.41 C 1011.55 176.13 1011.58 170.67 1012.40 165.32 C 1012.99 158.88 1014.12 152.52 1015.09 146.14 C 1016.24 140.12 1017.74 134.13 1018.05 127.99 C 1018.03 121.03 1015.38 113.65 1009.57 109.46 C 1005.64 106.69 1000.94 104.77 996.12 104.57 Z" />
<path fill="#02d7f6" opacity="1.00" d=" M 1111.37 73.32 C 1117.51 72.14 1123.78 72.71 1130.00 72.65 C 1142.00 72.57 1154.00 72.79 1166.00 72.70 C 1172.94 72.45 1179.98 72.46 1186.80 73.96 C 1193.33 75.65 1199.82 77.81 1205.61 81.35 C 1208.76 83.47 1211.40 86.27 1213.95 89.09 C 1217.23 93.01 1220.86 97.03 1221.98 102.19 C 1223.13 107.73 1223.72 113.37 1224.06 119.01 C 1224.95 125.06 1223.74 131.10 1223.56 137.15 C 1222.63 143.86 1222.49 150.75 1220.33 157.24 C 1218.22 163.59 1215.10 169.54 1212.91 175.86 C 1211.09 181.15 1208.13 186.17 1203.81 189.79 C 1200.71 192.35 1198.00 195.37 1194.72 197.70 C 1191.65 199.92 1188.75 202.36 1185.92 204.87 C 1184.48 206.16 1184.64 208.27 1184.31 210.01 C 1183.67 218.31 1184.98 226.60 1186.40 234.75 C 1187.47 245.54 1189.68 256.21 1189.93 267.06 C 1191.03 273.29 1190.61 279.65 1191.57 285.90 C 1191.74 295.62 1194.70 305.13 1194.15 314.88 C 1193.54 319.54 1190.87 325.00 1185.78 325.85 C 1180.59 327.14 1175.24 325.71 1170.00 326.49 C 1166.52 326.96 1163.02 326.40 1159.54 326.67 C 1155.92 325.78 1153.95 322.13 1153.05 318.79 C 1151.24 311.06 1151.65 303.06 1150.49 295.25 C 1150.04 286.09 1147.71 277.13 1147.58 267.94 C 1147.99 258.40 1144.28 249.31 1144.11 239.80 C 1142.92 231.83 1143.41 223.72 1142.15 215.77 C 1140.11 211.59 1134.66 210.48 1130.50 211.56 C 1126.30 212.62 1123.91 216.76 1122.72 220.63 C 1121.25 226.63 1121.04 232.85 1120.17 238.96 C 1119.14 245.09 1117.79 251.16 1116.27 257.19 C 1114.40 266.18 1113.14 275.29 1111.58 284.33 C 1110.00 294.70 1109.35 305.27 1106.54 315.42 C 1105.54 319.22 1103.43 323.04 1099.85 324.93 C 1096.10 326.43 1091.97 326.58 1088.00 326.36 C 1081.87 325.94 1075.70 327.43 1069.62 326.59 C 1065.63 325.11 1063.29 320.84 1063.08 316.74 C 1062.82 309.30 1064.79 302.04 1065.62 294.69 C 1066.53 287.19 1068.23 279.82 1070.46 272.61 C 1072.67 265.49 1072.22 257.96 1073.65 250.69 C 1075.34 241.21 1076.25 231.54 1079.17 222.32 C 1082.37 211.96 1082.05 200.98 1084.28 190.43 C 1087.43 174.41 1090.80 158.41 1092.99 142.21 C 1093.98 134.09 1094.72 125.90 1096.88 117.98 C 1098.87 110.34 1100.83 102.65 1101.54 94.76 C 1102.24 89.72 1102.13 84.55 1103.65 79.65 C 1104.35 76.07 1107.90 73.71 1111.37 73.32 M 1155.37 103.00 C 1152.05 103.54 1148.48 104.63 1146.30 107.34 C 1143.78 110.62 1143.37 114.87 1142.51 118.79 C 1140.92 126.28 1140.71 133.96 1140.22 141.58 C 1139.85 147.28 1137.61 152.60 1135.81 157.94 C 1133.86 163.29 1131.64 169.03 1132.88 174.81 C 1133.64 178.51 1137.19 181.41 1141.00 181.27 C 1148.16 181.17 1154.81 177.71 1160.44 173.52 C 1163.95 170.69 1167.57 167.79 1169.97 163.91 C 1173.03 158.53 1174.49 152.45 1176.93 146.79 C 1179.42 140.52 1181.51 133.88 1181.22 127.05 C 1181.31 121.20 1179.28 115.13 1174.89 111.12 C 1169.90 105.89 1162.88 101.57 1155.37 103.00 Z" />
</g>
<g id="#fefefdff">
<path fill="#fefefd" opacity="1.00" d=" M 1350.40 71.68 C 1356.58 71.04 1362.80 71.58 1369.00 71.50 C 1389.00 71.38 1409.00 71.51 1429.00 71.45 C 1433.92 71.44 1438.86 71.14 1443.78 71.57 C 1446.17 71.77 1448.77 72.66 1450.12 74.79 C 1451.20 77.61 1450.47 80.65 1450.25 83.55 C 1449.78 88.46 1448.54 93.29 1446.91 97.93 C 1443.50 102.54 1437.22 102.53 1432.05 102.62 C 1422.04 102.45 1412.02 102.64 1402.01 102.42 C 1398.48 102.39 1394.94 102.56 1391.52 103.40 C 1388.12 104.18 1384.99 106.72 1384.14 110.19 C 1381.15 120.26 1380.75 130.85 1380.08 141.27 C 1378.90 149.34 1376.30 157.13 1373.69 164.83 C 1372.43 168.47 1371.90 172.41 1372.58 176.22 C 1373.44 178.89 1375.84 180.99 1378.56 181.66 C 1389.59 181.87 1400.68 180.95 1411.74 181.61 C 1414.94 181.75 1418.29 183.16 1420.00 185.99 C 1421.10 188.59 1420.51 191.51 1419.98 194.18 C 1418.89 198.99 1417.42 203.78 1415.05 208.12 C 1413.21 210.81 1409.91 212.19 1406.74 212.39 C 1400.84 212.87 1394.91 212.45 1389.00 212.50 C 1383.47 212.58 1377.81 211.86 1372.41 213.35 C 1367.99 214.37 1364.46 218.15 1363.43 222.52 C 1362.31 226.57 1362.54 230.80 1362.35 234.96 C 1360.81 247.11 1359.33 259.34 1356.03 271.18 C 1354.71 276.35 1352.86 281.49 1352.76 286.88 C 1353.08 289.71 1354.31 292.68 1356.69 294.38 C 1359.57 295.78 1362.88 295.56 1366.01 295.56 C 1376.00 295.25 1386.00 295.57 1395.99 295.34 C 1399.43 295.32 1402.91 295.20 1406.32 295.80 C 1409.22 296.93 1410.39 300.24 1410.55 303.13 C 1411.22 310.92 1410.31 319.73 1404.66 325.65 C 1401.70 328.83 1397.02 328.55 1393.06 328.68 C 1370.37 328.38 1347.68 328.76 1325.00 328.47 C 1319.59 328.84 1314.18 329.68 1308.74 329.27 C 1304.26 328.38 1301.93 323.80 1301.59 319.61 C 1300.94 311.14 1302.87 302.79 1303.77 294.42 C 1304.38 287.68 1305.90 281.08 1307.70 274.57 C 1311.57 263.47 1311.79 251.59 1313.57 240.07 C 1313.56 230.75 1316.21 221.70 1319.19 212.95 C 1321.12 206.18 1321.69 199.13 1322.25 192.15 C 1323.52 183.42 1324.86 174.70 1326.18 165.99 C 1327.32 158.36 1330.93 151.32 1331.75 143.63 C 1332.36 139.68 1332.69 135.68 1332.79 131.68 C 1333.72 121.70 1335.22 111.73 1338.36 102.18 C 1340.15 96.96 1341.30 91.52 1341.49 86.00 C 1341.73 82.45 1341.41 78.54 1343.53 75.46 C 1345.04 73.17 1347.71 71.93 1350.40 71.68 Z" />
<path fill="#fefefd" opacity="1.00" d=" M 1479.57 72.71 C 1487.41 71.16 1495.57 71.09 1503.43 72.63 C 1505.82 73.08 1508.21 74.29 1509.66 76.31 C 1511.37 80.26 1511.48 84.66 1512.18 88.86 C 1513.18 96.06 1516.51 102.61 1518.40 109.57 C 1519.99 114.82 1520.35 120.32 1521.44 125.67 C 1523.11 135.66 1526.49 145.25 1528.92 155.07 C 1530.80 162.84 1531.26 170.90 1533.39 178.62 C 1534.36 181.70 1535.46 184.90 1537.71 187.31 C 1538.96 188.86 1541.41 189.19 1543.14 188.26 C 1546.64 184.99 1547.36 179.99 1548.62 175.60 C 1550.72 165.90 1551.79 156.03 1553.29 146.24 C 1554.50 134.87 1557.78 123.86 1559.52 112.58 C 1560.15 107.80 1561.89 103.22 1562.19 98.40 C 1562.40 94.33 1563.15 90.31 1563.41 86.25 C 1563.61 83.04 1564.15 79.70 1565.99 76.98 C 1567.62 74.74 1570.25 73.47 1572.92 72.89 C 1580.71 71.36 1588.78 70.95 1596.62 72.49 C 1600.33 73.01 1604.33 75.18 1605.22 79.13 C 1604.86 86.66 1602.11 93.82 1601.43 101.32 C 1600.06 109.28 1599.74 117.39 1598.23 125.32 C 1597.19 130.88 1594.87 136.08 1593.70 141.60 C 1591.71 150.39 1591.67 159.46 1590.27 168.34 C 1588.20 181.15 1585.27 193.79 1582.36 206.42 C 1580.98 215.46 1580.77 224.67 1578.60 233.58 C 1577.07 241.36 1575.63 249.16 1573.98 256.91 C 1571.28 268.34 1570.38 280.08 1568.70 291.68 C 1567.79 298.51 1565.18 304.93 1563.71 311.63 C 1562.68 316.04 1562.02 320.67 1559.68 324.64 C 1558.51 326.58 1556.46 327.92 1554.21 328.14 C 1548.10 328.95 1541.79 328.73 1535.84 327.12 C 1530.29 324.82 1526.96 319.17 1525.34 313.64 C 1523.78 307.50 1523.15 301.18 1522.00 294.97 C 1520.44 284.66 1515.50 275.20 1514.12 264.86 C 1512.54 254.05 1510.48 243.29 1507.14 232.87 C 1504.76 225.82 1503.72 218.43 1502.99 211.06 C 1502.19 206.00 1501.62 200.04 1497.03 196.86 C 1493.36 198.95 1491.84 203.21 1491.13 207.14 C 1489.33 217.45 1488.03 227.83 1486.11 238.12 C 1484.73 244.68 1482.64 251.11 1481.79 257.77 C 1481.39 262.97 1480.76 268.16 1480.42 273.36 C 1479.35 285.22 1474.53 296.31 1473.13 308.11 C 1472.03 314.12 1472.29 321.09 1467.85 325.84 C 1463.62 329.02 1457.93 328.23 1452.97 328.38 C 1448.24 328.64 1443.52 328.57 1438.81 328.30 C 1434.99 327.04 1433.03 323.04 1432.59 319.29 C 1431.97 314.00 1432.66 308.68 1433.35 303.43 C 1434.50 295.17 1435.44 286.82 1437.82 278.80 C 1439.88 272.00 1441.32 265.00 1441.93 257.92 C 1442.43 252.33 1443.55 246.81 1444.13 241.23 C 1444.89 233.89 1446.11 226.57 1448.48 219.56 C 1451.45 210.63 1451.81 201.15 1452.76 191.87 C 1453.42 185.71 1455.91 179.91 1456.42 173.73 C 1456.81 169.53 1457.48 165.36 1458.21 161.20 C 1459.03 156.64 1461.14 152.41 1461.84 147.82 C 1462.56 142.44 1463.42 137.07 1463.59 131.64 C 1464.38 124.76 1465.64 117.93 1467.23 111.18 C 1468.19 105.18 1470.46 99.46 1471.21 93.42 C 1471.81 89.12 1472.36 84.82 1472.68 80.49 C 1472.92 76.77 1475.83 73.32 1479.57 72.71 Z" />
<path fill="#fefefd" opacity="1.00" d=" M 1807.15 72.46 C 1810.71 72.54 1814.72 72.91 1817.40 75.54 C 1818.59 77.03 1819.76 78.95 1819.37 80.95 C 1818.46 85.32 1817.31 89.63 1816.08 93.91 C 1814.87 98.01 1814.59 102.30 1813.61 106.45 C 1811.04 118.25 1809.68 130.23 1808.35 142.22 C 1806.47 153.18 1800.85 163.49 1801.38 174.85 C 1801.22 178.63 1804.47 182.22 1808.26 182.43 C 1816.38 183.14 1824.54 182.19 1832.68 182.57 C 1836.70 182.75 1840.73 182.54 1844.77 182.46 C 1849.08 182.52 1852.98 178.80 1853.22 174.50 C 1854.26 159.63 1857.78 145.09 1861.70 130.75 C 1862.69 125.93 1862.37 120.95 1863.04 116.08 C 1863.39 109.04 1865.74 102.34 1867.49 95.57 C 1868.41 91.80 1868.23 87.88 1868.97 84.09 C 1869.49 81.23 1869.62 78.02 1871.74 75.77 C 1874.54 72.70 1879.02 71.87 1883.02 72.20 C 1888.68 72.20 1894.34 72.69 1900.01 72.50 C 1902.88 72.45 1905.83 72.38 1908.61 73.34 C 1911.62 74.06 1914.27 76.85 1914.35 80.01 C 1913.77 85.82 1912.06 91.45 1911.33 97.24 C 1910.07 106.88 1909.26 116.60 1907.28 126.12 C 1905.56 132.57 1903.96 139.04 1902.48 145.54 C 1901.23 154.02 1901.29 162.72 1899.04 171.04 C 1896.70 180.13 1896.45 189.62 1893.72 198.62 C 1890.47 208.18 1891.74 218.53 1889.37 228.29 C 1886.71 241.60 1882.86 254.71 1881.41 268.25 C 1880.00 276.75 1879.40 285.37 1878.03 293.89 C 1876.50 300.85 1873.98 307.56 1872.68 314.59 C 1871.72 318.98 1870.68 324.05 1866.72 326.76 C 1864.88 328.27 1862.49 327.26 1860.38 327.69 C 1853.48 327.59 1846.57 327.33 1839.67 327.64 C 1836.82 327.66 1834.14 326.59 1831.67 325.30 C 1829.49 323.85 1828.38 321.33 1827.71 318.91 C 1826.86 316.13 1828.15 313.39 1828.73 310.70 C 1829.81 306.01 1832.26 301.61 1832.35 296.71 C 1832.59 289.77 1833.34 282.83 1834.90 276.06 C 1838.15 261.86 1839.89 247.37 1843.06 233.16 C 1844.23 228.30 1844.87 223.28 1844.59 218.28 C 1844.45 214.18 1840.03 212.11 1836.49 211.69 C 1830.00 211.09 1823.49 211.55 1817.00 211.41 C 1810.63 211.49 1803.84 210.96 1798.05 214.12 C 1794.03 216.06 1792.64 220.81 1791.90 224.85 C 1791.19 233.18 1790.96 241.64 1788.81 249.76 C 1786.49 259.14 1785.72 268.82 1783.35 278.19 C 1781.42 285.60 1781.22 293.31 1780.01 300.85 C 1778.98 306.95 1778.48 313.26 1776.08 319.03 C 1773.13 324.72 1766.64 328.71 1760.15 327.90 C 1753.82 327.36 1747.48 327.60 1741.15 327.44 C 1738.14 327.55 1735.15 325.82 1733.91 323.07 C 1732.55 319.53 1732.17 315.70 1732.48 311.95 C 1733.71 297.62 1737.38 283.66 1740.57 269.69 C 1742.95 254.96 1743.97 240.00 1747.41 225.46 C 1749.28 217.33 1752.40 209.35 1752.42 200.91 C 1752.71 193.76 1753.92 186.68 1755.65 179.75 C 1757.13 171.67 1758.21 163.50 1760.48 155.60 C 1763.33 145.92 1762.74 135.68 1764.85 125.87 C 1766.41 116.51 1768.34 107.19 1771.06 98.09 C 1772.88 92.30 1771.98 86.13 1773.22 80.23 C 1773.45 76.91 1776.12 73.94 1779.40 73.33 C 1783.51 72.28 1787.78 72.40 1792.01 72.53 C 1797.05 72.68 1802.10 72.38 1807.15 72.46 Z" />
<path fill="#fefefd" opacity="1.00" d=" M 1957.42 72.50 C 1962.83 70.97 1968.48 71.63 1973.99 72.08 C 1978.75 72.50 1983.57 72.02 1988.32 72.69 C 1991.98 73.27 1994.55 76.68 1994.87 80.26 C 1995.19 86.58 1992.68 92.53 1991.79 98.70 C 1990.47 106.32 1989.97 114.05 1988.76 121.69 C 1987.64 128.76 1984.65 135.37 1983.46 142.43 C 1981.50 152.42 1981.37 162.65 1979.72 172.68 C 1978.94 176.60 1978.18 180.51 1977.56 184.45 C 1976.34 191.89 1974.11 199.10 1972.37 206.41 C 1971.26 211.19 1971.80 216.15 1970.93 220.96 C 1970.35 226.27 1969.00 231.44 1967.66 236.59 C 1966.35 241.57 1966.80 246.79 1965.69 251.80 C 1964.85 255.90 1964.06 260.01 1963.05 264.07 C 1961.78 268.97 1963.77 273.88 1965.59 278.37 C 1967.65 282.74 1969.63 287.41 1973.34 290.67 C 1977.82 293.58 1983.55 293.86 1988.65 292.60 C 1992.17 292.06 1995.52 290.58 1998.19 288.19 C 2002.12 284.83 2005.84 281.14 2008.85 276.90 C 2011.29 273.42 2012.07 269.15 2013.05 265.09 C 2014.23 259.85 2015.63 254.64 2017.58 249.62 C 2019.72 244.15 2020.86 238.35 2021.67 232.55 C 2023.49 215.71 2026.57 199.02 2030.53 182.56 C 2032.81 173.34 2032.75 163.76 2034.44 154.44 C 2037.80 135.87 2042.76 117.58 2044.65 98.76 C 2045.69 91.51 2045.33 83.68 2049.17 77.17 C 2051.39 73.38 2056.00 72.38 2060.05 71.96 C 2065.35 71.15 2070.66 72.80 2075.98 72.07 C 2080.00 71.55 2084.22 71.42 2088.07 72.95 C 2090.99 74.40 2092.20 77.92 2092.20 81.00 C 2091.88 86.35 2090.87 91.62 2089.78 96.86 C 2088.44 104.07 2087.23 111.32 2085.36 118.41 C 2081.90 130.56 2081.31 143.25 2079.58 155.70 C 2079.10 162.69 2077.02 169.40 2075.13 176.10 C 2071.50 189.30 2071.64 203.15 2068.46 216.45 C 2067.23 224.28 2066.12 232.16 2063.92 239.80 C 2061.86 246.67 2061.06 253.82 2059.91 260.88 C 2059.02 266.88 2056.26 272.37 2053.94 277.91 C 2052.10 282.21 2051.12 286.85 2048.94 291.01 C 2046.18 296.31 2042.15 300.79 2038.18 305.20 C 2034.64 309.32 2030.62 313.00 2026.50 316.52 C 2020.47 321.27 2012.63 322.13 2005.64 324.71 C 1999.05 327.07 1992.04 329.06 1984.99 328.13 C 1974.74 326.69 1964.08 329.21 1954.09 325.88 C 1947.00 323.72 1939.28 321.59 1934.23 315.78 C 1931.05 312.27 1927.77 308.80 1925.25 304.77 C 1922.95 301.17 1922.70 296.78 1922.32 292.65 C 1921.83 286.30 1920.08 280.15 1918.96 273.90 C 1918.31 270.86 1919.23 267.81 1919.91 264.86 C 1920.99 260.64 1921.63 256.32 1922.17 252.00 C 1922.71 247.73 1922.19 243.38 1923.07 239.14 C 1924.15 233.57 1924.36 227.88 1925.41 222.30 C 1926.07 216.84 1928.02 211.66 1929.16 206.30 C 1931.20 195.57 1932.57 184.74 1933.94 173.91 C 1935.50 166.53 1935.47 158.88 1937.57 151.60 C 1939.69 145.46 1942.40 139.32 1942.54 132.72 C 1942.48 124.90 1943.03 116.94 1945.45 109.45 C 1948.50 99.17 1948.61 88.25 1952.09 78.08 C 1953.00 75.65 1954.55 72.86 1957.42 72.50 Z" />
<path fill="#fefefd" opacity="1.00" d=" M 2170.42 72.46 C 2175.94 72.09 2181.49 71.03 2187.03 72.08 C 2197.51 72.64 2208.23 74.42 2217.57 79.46 C 2223.26 82.61 2227.69 87.78 2230.33 93.70 C 2233.69 101.72 2235.97 110.17 2237.38 118.75 C 2237.88 124.21 2238.72 130.07 2236.22 135.19 C 2234.77 138.70 2231.23 140.77 2227.69 141.62 C 2220.93 143.33 2214.48 146.03 2207.76 147.82 C 2203.81 148.94 2198.54 148.63 2196.29 144.70 C 2193.02 137.20 2195.62 128.90 2193.73 121.14 C 2193.26 119.09 2193.21 116.83 2191.89 115.11 C 2188.91 110.87 2185.32 106.96 2180.93 104.19 C 2177.62 102.05 2173.34 102.43 2169.92 104.02 C 2165.02 106.93 2160.85 110.86 2156.76 114.77 C 2153.34 117.87 2151.71 122.43 2150.78 126.83 C 2149.94 134.16 2150.02 141.89 2153.32 148.67 C 2158.52 158.41 2167.50 165.15 2174.80 173.19 C 2179.68 177.99 2184.00 183.32 2188.74 188.26 C 2193.81 193.20 2198.73 198.39 2202.64 204.33 C 2208.47 211.83 2212.05 220.74 2215.47 229.53 C 2216.53 232.64 2217.90 235.84 2217.57 239.21 C 2217.05 243.26 2218.13 247.31 2217.62 251.37 C 2217.23 255.65 2219.02 259.78 2218.53 264.07 C 2217.92 268.27 2217.33 272.58 2215.48 276.45 C 2212.30 283.05 2211.02 290.56 2206.48 296.47 C 2202.65 301.56 2200.05 308.03 2194.19 311.18 C 2187.96 315.02 2182.20 319.91 2175.12 322.12 C 2168.20 324.54 2161.30 327.45 2153.90 327.89 C 2147.95 328.56 2141.96 328.31 2136.00 328.46 C 2130.30 328.66 2124.80 326.73 2119.70 324.38 C 2114.61 322.07 2108.78 321.27 2104.38 317.63 C 2100.73 314.64 2097.19 311.43 2094.46 307.58 C 2091.01 302.97 2090.11 297.14 2088.08 291.89 C 2084.41 282.19 2082.17 271.57 2084.19 261.25 C 2085.14 256.12 2088.65 251.78 2092.87 248.87 C 2098.74 244.76 2106.09 243.93 2113.00 242.87 C 2116.91 242.21 2121.10 242.49 2124.69 244.33 C 2127.92 246.32 2128.12 250.53 2128.45 253.93 C 2128.53 262.13 2127.30 270.71 2130.40 278.55 C 2132.15 282.76 2133.85 287.49 2137.85 290.11 C 2143.46 294.15 2151.33 294.63 2157.43 291.39 C 2163.24 288.12 2168.35 283.32 2171.26 277.26 C 2172.76 272.98 2173.77 268.45 2173.62 263.89 C 2173.41 258.38 2174.23 252.74 2172.64 247.35 C 2171.27 241.51 2166.21 237.77 2163.11 232.92 C 2160.56 228.88 2157.26 225.41 2154.44 221.58 C 2152.43 218.93 2149.60 217.09 2147.42 214.61 C 2144.49 211.18 2140.78 208.57 2137.76 205.24 C 2133.09 200.24 2127.84 195.73 2124.09 189.96 C 2118.95 183.90 2113.32 177.84 2110.83 170.13 C 2106.31 159.19 2104.13 147.00 2106.35 135.26 C 2107.08 130.45 2108.89 125.89 2110.13 121.20 C 2111.42 116.60 2112.19 111.77 2114.60 107.57 C 2120.91 95.55 2130.32 84.50 2142.95 78.93 C 2151.44 74.58 2161.03 73.28 2170.42 72.46 Z" />
<path fill="#fefefd" opacity="1.00" d=" M 2560.24 72.46 C 2564.85 72.52 2569.42 71.39 2574.06 71.90 C 2584.00 72.70 2594.32 73.10 2603.51 77.41 C 2608.59 80.08 2613.25 83.67 2616.86 88.15 C 2620.39 92.63 2621.69 98.30 2623.50 103.60 C 2626.04 111.19 2627.36 119.14 2628.07 127.10 C 2628.38 130.20 2627.66 133.39 2626.11 136.08 C 2624.55 138.67 2621.68 140.05 2618.94 140.98 C 2615.15 142.22 2611.31 143.29 2607.57 144.62 C 2603.41 146.01 2599.28 147.72 2594.88 148.02 C 2590.76 148.42 2586.45 145.65 2585.49 141.57 C 2583.47 134.55 2585.52 127.16 2583.95 120.09 C 2582.85 114.97 2578.97 111.14 2575.38 107.60 C 2572.37 104.75 2568.44 102.00 2564.08 102.83 C 2557.84 103.88 2553.32 108.83 2548.68 112.71 C 2542.03 117.91 2540.05 126.89 2540.39 134.94 C 2540.01 140.87 2541.65 146.98 2545.29 151.72 C 2547.55 154.74 2549.66 157.94 2552.60 160.39 C 2554.75 162.23 2556.51 164.46 2558.47 166.52 C 2566.04 173.64 2572.81 181.53 2579.69 189.31 C 2582.72 192.92 2586.47 195.91 2589.13 199.86 C 2591.38 203.25 2594.34 206.13 2596.31 209.72 C 2598.07 213.02 2600.35 216.10 2601.32 219.79 C 2602.96 225.79 2606.35 231.16 2607.65 237.27 C 2609.51 243.08 2607.18 249.08 2607.82 254.99 C 2608.21 258.90 2608.41 262.86 2607.76 266.75 C 2607.07 272.33 2604.55 277.41 2602.75 282.66 C 2601.59 285.85 2600.85 289.23 2599.04 292.14 C 2596.64 296.59 2593.41 300.51 2590.76 304.80 C 2588.52 308.55 2584.71 310.90 2581.20 313.28 C 2576.85 315.96 2572.72 319.13 2567.86 320.83 C 2563.22 322.52 2558.63 324.32 2553.99 325.96 C 2548.25 328.08 2542.02 328.37 2535.98 328.01 C 2530.69 327.74 2525.33 329.23 2520.13 327.85 C 2515.77 326.94 2511.71 325.11 2507.61 323.50 C 2503.54 321.89 2499.07 321.11 2495.51 318.45 C 2491.30 315.42 2487.53 311.73 2484.52 307.50 C 2481.87 303.92 2481.14 299.43 2479.50 295.40 C 2477.30 289.36 2474.39 283.43 2474.01 276.92 C 2472.90 270.74 2473.51 264.39 2475.34 258.42 C 2477.27 253.75 2480.81 249.64 2485.40 247.39 C 2491.84 244.32 2498.99 243.30 2506.02 242.52 C 2509.74 242.57 2514.00 243.44 2516.50 246.47 C 2517.95 248.64 2518.51 251.36 2518.23 253.96 C 2517.80 259.22 2517.09 264.57 2518.17 269.81 C 2519.37 275.71 2520.66 281.84 2524.12 286.89 C 2530.09 294.66 2542.33 295.78 2550.05 290.01 C 2557.46 284.66 2563.69 276.35 2563.59 266.84 C 2563.49 259.81 2564.45 252.54 2562.15 245.74 C 2561.06 241.69 2557.67 238.97 2555.39 235.63 C 2547.19 225.88 2539.96 215.15 2530.10 206.92 C 2526.96 204.39 2524.39 201.26 2521.39 198.60 C 2518.14 195.77 2516.20 191.84 2513.21 188.79 C 2510.42 185.85 2508.24 182.44 2505.63 179.37 C 2503.47 176.87 2502.54 173.65 2501.32 170.65 C 2499.09 164.91 2496.63 159.16 2495.82 153.01 C 2495.08 148.14 2496.39 143.29 2496.40 138.42 C 2496.42 133.33 2498.17 128.49 2499.38 123.60 C 2501.30 118.33 2502.15 112.69 2504.72 107.66 C 2508.73 98.68 2515.37 91.11 2522.89 84.87 C 2527.89 81.16 2533.76 78.89 2539.46 76.47 C 2545.95 73.51 2553.19 72.85 2560.24 72.46 Z" />
<path fill="#fefefd" opacity="1.00" d=" M 1635.40 73.30 C 1640.12 71.85 1645.13 72.62 1650.00 72.54 C 1678.00 72.56 1706.00 72.56 1734.00 72.52 C 1739.12 72.57 1744.43 71.84 1749.37 73.59 C 1752.03 74.52 1754.37 77.09 1754.35 80.02 C 1754.39 85.09 1753.49 90.15 1751.94 94.97 C 1751.31 97.08 1750.11 99.08 1748.26 100.32 C 1746.03 101.45 1743.47 101.55 1741.05 101.58 C 1733.44 101.63 1725.82 101.03 1718.23 101.54 C 1715.11 101.67 1711.72 103.53 1710.98 106.75 C 1709.60 111.23 1709.64 115.97 1708.64 120.52 C 1707.23 126.93 1704.72 133.06 1703.81 139.58 C 1701.80 149.66 1701.85 160.08 1699.08 170.02 C 1697.63 175.14 1697.67 180.51 1696.80 185.74 C 1695.96 192.67 1693.25 199.20 1692.25 206.09 C 1691.56 210.81 1690.86 215.52 1690.48 220.27 C 1689.61 227.43 1687.92 234.46 1686.82 241.59 C 1685.93 247.36 1684.23 252.97 1682.89 258.64 C 1679.92 270.93 1680.97 283.89 1677.13 296.01 C 1675.17 302.19 1674.22 308.62 1673.10 314.99 C 1672.27 319.15 1670.75 323.66 1667.11 326.17 C 1662.99 327.97 1658.36 327.51 1653.99 327.49 C 1647.86 327.22 1641.58 328.29 1635.61 326.48 C 1631.44 325.41 1628.59 321.17 1628.70 316.94 C 1628.79 311.54 1630.99 306.49 1631.90 301.21 C 1634.08 290.78 1633.96 280.03 1636.45 269.66 C 1639.12 259.84 1641.07 249.84 1642.50 239.76 C 1643.75 231.84 1644.21 223.81 1645.87 215.95 C 1647.95 202.72 1652.20 189.87 1653.21 176.46 C 1653.77 166.08 1657.23 156.19 1658.83 145.97 C 1659.59 140.43 1661.62 135.14 1662.10 129.56 C 1662.75 122.73 1664.37 116.01 1664.58 109.14 C 1664.86 105.53 1661.59 102.64 1658.33 101.87 C 1650.39 100.41 1642.24 102.59 1634.35 100.79 C 1631.12 100.21 1627.74 98.44 1626.53 95.24 C 1626.04 90.00 1626.45 84.56 1628.78 79.75 C 1629.73 76.66 1632.36 74.28 1635.40 73.30 Z" />
<path fill="#fefefd" opacity="1.00" d=" M 2282.40 73.32 C 2287.16 72.06 2292.12 72.50 2297.00 72.55 C 2302.53 72.64 2308.15 71.92 2313.60 73.29 C 2316.14 73.66 2318.40 75.44 2319.48 77.76 C 2319.92 81.90 2319.59 86.16 2318.32 90.14 C 2315.52 99.63 2313.64 109.35 2312.24 119.13 C 2311.37 126.73 2310.81 134.39 2309.01 141.84 C 2307.49 148.89 2307.33 156.20 2305.26 163.14 C 2304.10 167.23 2302.20 171.15 2301.77 175.42 C 2301.25 181.32 2301.08 187.25 2300.36 193.12 C 2299.29 199.71 2297.21 206.07 2295.79 212.58 C 2294.78 217.01 2294.15 221.52 2293.05 225.92 C 2291.71 231.15 2291.73 236.58 2290.92 241.89 C 2290.04 252.14 2288.05 262.28 2285.41 272.22 C 2282.59 283.80 2281.28 295.67 2279.72 307.48 C 2278.87 312.67 2278.05 318.31 2274.43 322.41 C 2271.29 325.75 2266.55 327.55 2262.01 327.38 C 2255.68 326.61 2249.25 326.55 2242.95 327.49 C 2239.66 327.98 2236.06 326.18 2234.96 322.96 C 2232.42 317.96 2233.88 312.31 2234.90 307.13 C 2237.16 297.25 2238.96 287.27 2241.10 277.36 C 2242.59 267.76 2244.01 258.16 2245.31 248.54 C 2246.06 237.74 2250.68 227.70 2251.85 216.97 C 2252.34 211.57 2252.85 206.16 2253.59 200.78 C 2254.38 195.59 2256.44 190.67 2257.08 185.46 C 2257.68 179.35 2258.00 173.10 2260.16 167.30 C 2262.41 160.44 2263.23 153.21 2263.73 146.04 C 2264.77 138.52 2265.70 130.97 2267.52 123.59 C 2269.30 116.00 2271.97 108.55 2272.36 100.70 C 2273.26 93.84 2273.05 86.80 2275.01 80.11 C 2275.85 76.64 2278.94 73.99 2282.40 73.32 Z" />
<path fill="#fefefd" opacity="1.00" d=" M 2396.44 73.33 C 2400.46 71.91 2404.81 72.53 2409.00 72.52 C 2416.41 72.85 2424.00 71.61 2431.27 73.60 C 2434.25 74.42 2437.08 76.76 2437.19 80.07 C 2438.08 87.34 2437.00 94.69 2437.52 101.99 C 2437.12 112.28 2435.51 122.67 2437.20 132.94 C 2437.93 136.71 2438.21 140.54 2438.80 144.33 C 2441.58 158.40 2439.89 172.77 2440.48 186.99 C 2440.44 195.85 2438.78 204.71 2439.69 213.59 C 2440.38 219.72 2441.62 225.81 2441.52 232.01 C 2441.39 247.67 2441.50 263.33 2441.44 279.00 C 2441.37 284.19 2441.23 289.41 2441.74 294.59 C 2442.52 301.39 2445.25 308.04 2444.36 314.99 C 2443.75 319.25 2442.08 323.95 2438.11 326.17 C 2433.01 328.35 2427.35 327.29 2422.00 327.44 C 2417.24 327.29 2412.21 328.32 2407.73 326.34 C 2403.28 323.59 2402.47 317.84 2402.47 313.05 C 2402.53 302.35 2402.52 291.64 2402.64 280.94 C 2402.50 276.71 2402.56 271.85 2399.33 268.65 C 2397.63 266.42 2394.60 266.31 2392.07 266.54 C 2386.05 267.01 2380.02 266.98 2374.02 266.50 C 2369.40 265.93 2364.61 268.07 2361.91 271.83 C 2358.02 276.92 2355.00 282.65 2352.84 288.66 C 2351.37 293.82 2350.48 299.19 2348.09 304.04 C 2345.60 309.09 2343.57 314.33 2341.62 319.59 C 2340.47 322.85 2338.28 326.05 2334.86 327.13 C 2329.23 328.60 2323.57 326.25 2317.92 326.59 C 2313.83 326.78 2309.75 326.47 2305.69 326.49 C 2302.59 326.02 2299.47 323.35 2299.63 320.02 C 2300.92 308.36 2307.04 298.11 2311.43 287.45 C 2313.56 280.32 2316.26 273.36 2319.52 266.66 C 2322.06 261.65 2322.93 256.03 2324.65 250.73 C 2326.35 245.13 2329.62 240.18 2331.43 234.62 C 2332.74 230.55 2333.69 226.36 2335.32 222.40 C 2336.69 218.91 2338.68 215.72 2340.18 212.28 C 2342.49 206.99 2343.59 201.28 2345.95 196.01 C 2347.63 191.78 2350.03 187.83 2351.26 183.42 C 2352.96 177.43 2354.76 171.39 2357.88 165.96 C 2361.00 160.15 2362.51 153.71 2364.22 147.39 C 2366.03 140.45 2370.74 134.72 2372.57 127.80 C 2373.16 125.63 2373.56 123.42 2374.07 121.23 C 2375.50 114.14 2380.90 108.63 2382.40 101.55 C 2384.13 93.20 2387.61 85.30 2392.00 78.00 C 2393.13 76.19 2394.32 74.13 2396.44 73.33 M 2395.49 174.14 C 2393.65 175.70 2392.75 177.99 2392.16 180.26 C 2390.78 185.61 2389.91 191.09 2388.27 196.37 C 2385.39 204.50 2382.21 212.53 2379.74 220.80 C 2378.73 224.70 2377.17 229.45 2380.09 232.92 C 2383.47 235.32 2387.79 236.30 2391.92 236.10 C 2395.74 235.94 2399.67 233.43 2400.69 229.60 C 2402.05 225.19 2401.27 220.50 2401.58 215.97 C 2401.43 209.29 2402.76 202.69 2402.49 196.01 C 2402.40 189.55 2402.97 182.78 2400.49 176.67 C 2399.79 174.79 2397.43 172.42 2395.49 174.14 Z" />
<path fill="#fefefd" opacity="1.00" d=" M 2656.33 73.18 C 2662.12 71.89 2668.11 72.66 2674.01 72.56 C 2703.02 72.47 2732.04 72.65 2761.05 72.46 C 2764.04 72.56 2767.16 72.72 2769.98 73.91 C 2772.61 75.30 2774.53 78.18 2774.49 81.21 C 2774.82 85.35 2773.67 89.42 2772.42 93.32 C 2771.51 95.88 2770.52 98.66 2768.28 100.36 C 2764.08 102.15 2759.40 101.45 2755.00 101.50 C 2749.08 101.52 2743.15 101.03 2737.27 101.61 C 2733.42 101.78 2730.78 105.43 2730.15 108.93 C 2729.08 115.44 2728.68 122.10 2726.52 128.38 C 2722.23 141.90 2722.17 156.24 2719.18 170.02 C 2717.61 175.78 2717.84 181.80 2716.60 187.61 C 2715.43 194.69 2712.46 201.37 2711.92 208.56 C 2710.84 215.63 2710.64 222.82 2708.88 229.78 C 2706.83 239.17 2705.71 248.77 2703.02 258.01 C 2700.86 267.54 2700.85 277.37 2699.17 286.98 C 2698.22 293.56 2695.78 299.79 2694.55 306.31 C 2693.37 311.47 2693.10 316.91 2690.82 321.76 C 2689.74 323.94 2688.09 326.16 2685.63 326.76 C 2680.85 328.09 2675.86 327.33 2671.00 327.44 C 2665.34 327.37 2659.43 328.14 2654.04 326.05 C 2650.77 324.72 2649.16 321.16 2648.72 317.87 C 2648.54 312.66 2650.51 307.74 2651.57 302.71 C 2652.91 295.17 2653.24 287.47 2654.77 279.96 C 2656.63 269.38 2659.20 258.94 2661.30 248.41 C 2662.62 240.82 2663.23 233.14 2664.35 225.53 C 2666.42 213.77 2668.10 201.91 2671.27 190.37 C 2672.96 182.53 2672.56 174.38 2674.41 166.56 C 2676.67 156.73 2677.84 146.64 2680.84 136.98 C 2682.52 131.56 2682.35 125.82 2683.28 120.27 C 2683.70 115.77 2685.04 111.25 2684.27 106.72 C 2683.36 104.20 2680.97 102.36 2678.42 101.78 C 2670.72 100.53 2662.85 102.40 2655.18 101.00 C 2651.41 100.37 2647.89 97.87 2646.61 94.20 C 2645.49 88.36 2647.15 82.30 2650.24 77.32 C 2651.63 75.23 2653.82 73.66 2656.33 73.18 Z" />
</g>
</svg>
