<?xml version="1.0" encoding="UTF-8" standalone="no"?>
<svg
   xmlns:dc="http://purl.org/dc/elements/1.1/"
   xmlns:cc="http://creativecommons.org/ns#"
   xmlns:rdf="http://www.w3.org/1999/02/22-rdf-syntax-ns#"
   xmlns:svg="http://www.w3.org/2000/svg"
   xmlns="http://www.w3.org/2000/svg"
   xmlns:sodipodi="http://sodipodi.sourceforge.net/DTD/sodipodi-0.dtd"
   xmlns:inkscape="http://www.inkscape.org/namespaces/inkscape"
   width="442.17337pt"
   height="496.48755pt"
   viewBox="0 0 442.17337 496.48755"
   version="1.1"
   id="svg1554"
   sodipodi:docname="recicler.svg"
   inkscape:version="0.92.3 (2405546, 2018-03-11)">
  <metadata
     id="metadata1560">
    <rdf:RDF>
      <cc:Work
         rdf:about="">
        <dc:format>image/svg+xml</dc:format>
        <dc:type
           rdf:resource="http://purl.org/dc/dcmitype/StillImage" />
        <dc:title></dc:title>
      </cc:Work>
    </rdf:RDF>
  </metadata>
  <defs
     id="defs1558" />
  <sodipodi:namedview
     pagecolor="#ffffff"
     bordercolor="#666666"
     borderopacity="1"
     objecttolerance="10"
     gridtolerance="10"
     guidetolerance="10"
     inkscape:pageopacity="0"
     inkscape:pageshadow="2"
     inkscape:window-width="1366"
     inkscape:window-height="705"
     id="namedview1556"
     showgrid="false"
     inkscape:pagecheckerboard="true"
     inkscape:zoom="0.26981707"
     inkscape:cx="296.84"
     inkscape:cy="340.98672"
     inkscape:window-x="-8"
     inkscape:window-y="-8"
     inkscape:window-maximized="1"
     inkscape:current-layer="svg1554" />
  <g
     id="#28384fff"
     transform="translate(-55.37,-87.252504)" />
  <g
     id="#02ecf7ff"
     transform="translate(-55.37,-87.252504)">
    <path
       d="m 350.5,87.63 c 4.26,-1.1 8.65,0.33 12.25,2.66 7.91,4.95 16.22,9.23 24.57,13.39 6.13,3.03 11.85,6.78 17.69,10.3 14.1,7.99 28.31,15.76 42.41,23.73 9.07,5.73 18.7,10.5 27.95,15.94 5.18,3.09 11.32,4.89 15.51,9.43 2.98,3.21 3.45,7.77 3.63,11.95 0.33,8.67 2.08,17.23 2.08,25.93 -0.1,29.68 0,59.36 -0.09,89.04 -0.07,5.63 -0.1,11.27 0.47,16.87 0.38,4.54 0.92,9.14 0.27,13.68 -0.79,4.68 -5.17,7.39 -8.84,9.76 -8.01,4.66 -16.1,9.18 -24.12,13.82 -4.56,2.7 -8.79,5.96 -13.57,8.28 -5.48,2.78 -11.53,4.28 -16.8,7.5 -6.03,3.62 -12.14,7.11 -18,11.02 -6.73,4.45 -14.13,7.73 -20.99,11.94 -5.63,3.41 -11.5,6.4 -16.96,10.07 -3.91,2.57 -8.13,5.22 -12.95,5.32 -3.09,0 -6.69,-1.29 -7.77,-4.47 -2.09,-5.68 -1.64,-11.86 -1.69,-17.8 -0.1,-8.01 1.21,-15.99 0.54,-23.99 -0.7,-7.98 -0.4,-16 -0.44,-24 -0.01,-12.33 0.02,-24.67 -0.03,-37 -0.09,-8.01 0.89,-15.99 0.78,-24 -0.07,-6.8 0.76,-14.02 -2.19,-20.37 -3.18,-1.77 -6.02,-4.17 -9.53,-5.28 -10.68,-4.67 -20.14,-11.65 -30.62,-16.73 -6.18,-2.95 -11.96,-6.64 -18.02,-9.82 -19.76,-10.6 -38.37,-23.17 -58.06,-33.91 -5.19,-2.73 -11.4,-3.85 -15.59,-8.23 -2.85,-2.96 -3.9,-7.75 -2.18,-11.51 1.71,-2.68 4.89,-3.79 7.61,-5.13 4.57,-1.95 8.99,-4.24 13.17,-6.93 7.6,-4.89 15.86,-8.63 23.48,-13.5 7.61,-4.88 15.63,-9.07 23.41,-13.67 6.79,-4.04 14.34,-6.65 20.91,-11.09 8.37,-5.57 17.88,-9.16 26.22,-14.77 5.04,-2.99 9.77,-6.82 15.49,-8.43 z"
       id="path1547"
       inkscape:connector-curvature="0"
       style="opacity:1;fill:#02ecf7" />
    <path
       d="m 193.51,181.58 c 4.8,-0.55 9.59,0.9 13.82,3.08 4.94,2.52 9.09,6.28 13.89,9.03 2.87,1.67 5.94,2.93 8.98,4.27 10.79,4.68 20.35,11.7 30.79,17.07 9.66,4.85 19.03,10.25 28.42,15.59 8.57,5.17 16.99,10.63 26.04,14.95 4.88,2.53 10.38,4.7 13.68,9.34 1.82,2.47 2.35,6.7 -0.52,8.62 -3.22,2.38 -6.99,3.82 -10.49,5.71 -5,2.68 -10.01,5.32 -15.06,7.9 -5.6,2.87 -10.62,6.69 -16.04,9.87 -12.48,7.22 -25.44,13.61 -37.54,21.48 -11.94,7.69 -24.75,13.86 -37.05,20.91 -4.32,2.6 -8.75,5.15 -12.49,8.58 -2.27,1.99 -2.86,5.12 -3.22,7.98 -0.57,5.66 -0.15,11.36 -0.18,17.04 0.01,36.33 -0.01,72.67 0,109 -0.03,5.57 0.38,11.16 -0.2,16.72 -0.23,2.36 -1.2,5.24 -3.83,5.8 -3.02,0.63 -5.63,-1.52 -8.05,-2.98 -8.75,-6.27 -18.46,-10.96 -27.79,-16.26 -4.34,-2.45 -8.04,-5.92 -12.57,-8.03 -5.53,-2.7 -11.44,-4.53 -16.84,-7.49 -4.99,-2.72 -10.21,-5.02 -15.04,-8.04 -13.16,-8.02 -26.82,-15.17 -40.21,-22.78 -4.41,-2.53 -9.39,-4.26 -13.13,-7.81 -2.96,-2.86 -3.37,-7.21 -3.49,-11.09 0.09,-47.37 0.13,-94.74 -0.02,-142.1 0.12,-2.49 0.24,-5.07 1.28,-7.37 1.06,-2.13 3.13,-3.47 5,-4.81 5.48,-3.68 11.47,-6.5 17.03,-10.04 11.58,-7.23 23.79,-13.38 35.18,-20.91 7.35,-4.87 15.45,-8.43 23.02,-12.91 10.7,-6.59 21.97,-12.15 33.11,-17.92 7.78,-4.19 14.44,-11.1 23.52,-12.4 z"
       id="path1549"
       inkscape:connector-curvature="0"
       style="opacity:1;fill:#02ecf7" />
    <path
       d="m 488.57,350.46 c 2.48,-1.39 5,0.71 6.17,2.83 2.14,3.8 1.63,8.34 1.29,12.51 -0.77,7.37 -0.58,14.8 -0.56,22.2 0.01,30 0.03,60 -0.02,90 0.21,8.05 0.64,16.34 -1.92,24.1 -1.64,4.08 -4.1,8.3 -8.25,10.21 -3.42,1.74 -7.03,3.02 -10.46,4.72 -5.22,2.52 -9.87,6.01 -14.82,8.97 -7.53,4.68 -15.77,8.07 -23.22,12.87 -9.63,6.23 -19.53,12.05 -29.73,17.29 -3.66,1.9 -7.16,4.07 -10.72,6.13 -5.33,3.08 -10.91,5.7 -16.18,8.88 -6.24,3.79 -12.27,7.95 -18.78,11.28 -3.29,1.72 -7.42,1.74 -10.69,-0.06 -6.74,-3.48 -13.15,-7.55 -19.66,-11.42 -6.77,-4.05 -14.18,-6.91 -20.93,-10.99 -8.17,-4.32 -15.61,-9.84 -23.64,-14.36 -10.48,-4.89 -20.38,-10.89 -30.46,-16.54 -7.69,-4.26 -14.85,-9.52 -22.98,-12.94 -3.86,-1.74 -8.06,-3.04 -11.28,-5.89 -3.39,-3.16 -4.34,-7.98 -4.9,-12.38 -0.7,-7.27 -0.2,-14.59 -0.29,-21.87 -0.1,-36.02 0.12,-72.05 -0.11,-108.07 0.11,-3.24 0.33,-6.58 1.74,-9.55 1.04,-2.23 3.37,-3.9 5.88,-3.83 4.09,0.04 7.85,1.98 11.23,4.12 9.85,6.43 20.17,12.1 30.68,17.36 5.87,2.91 11.03,7.02 16.87,9.97 8.09,4.19 15.55,9.45 23.67,13.58 13,6.73 25.36,14.57 38.06,21.83 3.45,2.01 7.32,3.62 11.41,3.33 6.04,-0.04 10.97,-3.94 16.1,-6.62 5.38,-2.83 10.56,-6.02 15.62,-9.4 8.41,-5.57 17.72,-9.58 26.26,-14.94 4.56,-2.83 9.19,-5.53 13.95,-8.01 5.82,-3.02 11.18,-6.84 16.93,-10.01 4.46,-2.49 8.94,-4.94 13.3,-7.6 6.27,-3.83 13.05,-6.8 19.14,-10.94 3.68,-2.38 7.17,-5.18 11.3,-6.76 z"
       id="path1551"
       inkscape:connector-curvature="0"
       style="opacity:1;fill:#02ecf7" />
  </g>
</svg>
