<?xml version="1.0" encoding="UTF-8" standalone="no"?>
<svg
   xmlns:dc="http://purl.org/dc/elements/1.1/"
   xmlns:cc="http://creativecommons.org/ns#"
   xmlns:rdf="http://www.w3.org/1999/02/22-rdf-syntax-ns#"
   xmlns:svg="http://www.w3.org/2000/svg"
   xmlns="http://www.w3.org/2000/svg"
   xmlns:sodipodi="http://sodipodi.sourceforge.net/DTD/sodipodi-0.dtd"
   xmlns:inkscape="http://www.inkscape.org/namespaces/inkscape"
   width="350.98999pt"
   height="303.98999pt"
   viewBox="0 0 350.98999 303.98999"
   version="1.1"
   id="svg2678"
   sodipodi:docname="triangulos.svg"
   inkscape:version="0.92.3 (2405546, 2018-03-11)">
  <metadata
     id="metadata2684">
    <rdf:RDF>
      <cc:Work
         rdf:about="">
        <dc:format>image/svg+xml</dc:format>
        <dc:type
           rdf:resource="http://purl.org/dc/dcmitype/StillImage" />
        <dc:title></dc:title>
      </cc:Work>
    </rdf:RDF>
  </metadata>
  <defs
     id="defs2682" />
  <sodipodi:namedview
     pagecolor="#ffffff"
     bordercolor="#666666"
     borderopacity="1"
     objecttolerance="10"
     gridtolerance="10"
     guidetolerance="10"
     inkscape:pageopacity="0"
     inkscape:pageshadow="2"
     inkscape:window-width="1366"
     inkscape:window-height="705"
     id="namedview2680"
     showgrid="false"
     inkscape:pagecheckerboard="true"
     inkscape:zoom="0.28780488"
     inkscape:cx="231.98667"
     inkscape:cy="207.34668"
     inkscape:window-x="-8"
     inkscape:window-y="-8"
     inkscape:window-maximized="1"
     inkscape:current-layer="svg2678" />
  <g
     id="#01d9f2ff"
     transform="translate(-76.01,-159.02)">
    <path
       d="m 76.01,395 c 43,-78.66 85.98,-157.33 128.99,-235.98 15.35,27.65 30.66,55.32 46,82.97 -8.35,12.63 -16.56,25.36 -25.03,37.91 -6.35,-13.62 -12.63,-27.27 -18.97,-40.89 -21.67,38.67 -43.34,77.33 -65,116 38,-0.68 75.99,-1.33 113.99,-2.01 6.68,13.99 13.33,28 20.01,41.99 C 209.33,395 142.67,395 76.01,395 Z"
       id="path2671"
       inkscape:connector-curvature="0"
       style="opacity:1;fill:#01d9f2" />
    <path
       d="M 199.01,344 C 233.33,285 267.67,226.01 302,167.01 c 41.67,74.66 83.34,149.33 125,224 -28,-0.36 -56,-0.66 -84,-1.02 C 335.32,376 327.67,362 320,348 c 12,-0.01 24,0.01 36,0 -18.33,-35.66 -36.65,-71.33 -55,-106.98 -17.69,34.32 -35.32,68.66 -53.01,102.98 -16.33,0 -32.65,0 -48.98,0 z"
       id="path2673"
       inkscape:connector-curvature="0"
       style="opacity:1;fill:#01d9f2" />
    <path
       d="m 257.01,335.95 c 8.03,-14.96 15.98,-29.96 23.99,-44.93 33.01,57.32 66,114.65 99,171.99 -83.67,-1.37 -167.33,-2.63 -251,-4.04 12.37,-19.97 24.66,-40 37.02,-59.98 16.66,0.38 33.31,0.64 49.97,1.03 -4.66,8 -9.34,15.98 -13.99,23.99 32.34,-0.36 64.67,-0.64 97,-1.03 -14.01,-29.01 -28.04,-58 -41.99,-87.03 z"
       id="path2675"
       inkscape:connector-curvature="0"
       style="opacity:1;fill:#01d9f2" />
  </g>
</svg>
